<svg width="20" height="20" viewBox="0 0 20 20" xmlns="http://www.w3.org/2000/svg">
  <path d="M9.999 0c-5.521 0-9.999 4.59-9.999 10.253 0 4.53 2.865 8.373 6.839 9.728.5.094.683-.222.683-.494l-.014-1.744c-2.782.619-3.368-1.375-3.368-1.375-.455-1.185-1.111-1.5-1.111-1.5-.908-.636.069-.623.069-.623 1.004.072 1.532 1.057 1.532 1.057.892 1.567 2.341 1.114 2.91.852.091-.662.349-1.114.635-1.37-2.22-.259-4.555-1.139-4.555-5.068 0-1.119.39-2.035 1.029-2.751-.103-.259-.446-1.302.098-2.713 0 0 .839-.276 2.75 1.051.797-.228 1.653-.341 2.503-.346.85.004 1.705.118 2.503.346 1.909-1.327 2.747-1.051 2.747-1.051.546 1.411.203 2.454.1 2.713.641.716 1.028 1.632 1.028 2.751 0 3.939-2.338 4.806-4.566 5.059.359.317.678.942.678 1.898 0 1.371-.012 2.477-.012 2.813 0 .274.18.594.688.493 3.971-1.359 6.833-5.199 6.833-9.728 0-5.663-4.478-10.253-10.001-10.253" fill="#000"/>
</svg>
