<svg width="12" height="18" viewBox="0 0 12 18" xmlns="http://www.w3.org/2000/svg">
  <path d="M3.999 17.69c-2.307-.645-3.999-2.763-3.999-5.276 0-1.447.624-3.733 1.815-6.128.218-.437.608 2.347 2.292 3.604-.301-1.256-1.499-3.606-.668-5.207 1.329-2.558 3.17-3.519 4.366-4.412-.866 3.609-2.328 6.015 1.378 9.988.377.404-.07-2.455-.707-3.973 3.523 2.131 3.523 4.816 3.523 6.128 0 2.194-1.84 4.087-4.005 4.961.68-1.679.263-5.686-1.674-7.994-.434-.347 1.346 4.544-.836 5.017-1.6.347-1.6 2.283-1.486 3.291z" fill="#F57926"/>
</svg>
