<svg height="10" viewBox="0 0 10 10" width="10" xmlns="http://www.w3.org/2000/svg">
  <path d="m33 235h8c.5522847 0 1 .447715 1 1v8c0 .552285-.4477153 1-1 1h-8c-.5522847 0-1-.447715-1-1v-8c0-.552285.4477153-1 1-1zm4.6070313 4.908819v-.831248h-3.6070313v.831248h1.2877734v3.70111h1.0251563v-3.70111zm.4087235 3.525815c.1653186.084289.3608366.147505.5865601.18965.2257234.042144.4636302.063216.7137275.063216.2437389 0 .4752874-.023179.6946524-.069538.2193651-.046359.411704-.122745.5770225-.22916.1653186-.106415.2961938-.245489.3926297-.417228.0964358-.171739.144653-.384039.144653-.636906 0-.183329-.0275527-.344002-.0826589-.482026-.0551062-.138023-.134585-.260767-.238439-.368235-.103854-.107469-.2283709-.203873-.3735545-.289216-.1451836-.085342-.3089101-.165942-.4911845-.241803-.1335265-.054787-.2532747-.107994-.3592481-.159621-.1059735-.051627-.1960495-.104307-.270231-.158041-.0741814-.053735-.1314062-.110629-.1716761-.170685s-.0604045-.128013-.0604045-.203873c0-.069538.0180152-.132227.0540462-.188069.0360309-.055841.0868974-.10378.1526009-.143817.0657036-.040037.1462422-.071119.2416183-.093244.0953761-.022126.2013479-.033189.3179187-.033189.0847788 0 .174325.006322.2686413.018965.0943164.012643.1891612.032135.2845373.058475s.1881015.059529.2781789.099566.1732653.086396.2495662.139076v-.945086c-.1547212-.059002-.3237463-.102726-.5070804-.131174-.183334-.028447-.3936882-.042671-.6310687-.042671-.2416194 0-.4705186.025813-.6867044.07744s-.4064053.132227-.5706641.241803c-.1642589.109576-.2940744.249177-.3894505.418809s-.1430634.372449-.1430634.608458c0 .301334.0874268.558411.2622829.771241.1748562.21283.4403157.392995.7963865.540501.1398849.056895.2702303.112736.39104.167523.1208097.054788.225192.111683.31315.170685.0879579.059002.1573695.123272.2082367.19281.0508673.069539.0763005.148558.0763005.237062 0 .065324-.0158958.125906-.0476878.181747-.031792.055842-.0800092.104307-.144653.145398s-.1451824.073226-.2416183.096405c-.0964358.023179-.2092958.034769-.3385834.034769-.2204248 0-.4387268-.038456-.6549126-.11537s-.4164726-.192283-.6008664-.34611z" fill="#187abf" fill-rule="evenodd" transform="translate(-32 -235)"/>
</svg>
