<svg width="16" height="8" viewBox="0 0 16 8" xmlns="http://www.w3.org/2000/svg">
  <path d="M12.023.89l2.887 3.102-2.91 3.119h-11.059v-6.222l11.082.001zm-12.023-.445v7.111c0 .245.211.444.471.444h11.765c.136 0 .265-.055.354-.152l3.294-3.556c.155-.168.155-.418 0-.585l-3.294-3.556c-.089-.096-.218-.152-.354-.152h-11.765c-.26 0-.471.199-.471.444zm11.059 5.333c1.04 0 1.882-.796 1.882-1.778s-.843-1.778-1.882-1.778c-1.04 0-1.882.796-1.882 1.778s.843 1.778 1.882 1.778zm0-.889c-.52 0-.941-.398-.941-.889s.421-.889.941-.889.941.398.941.889-.421.889-.941.889z" fill="#000"/>
</svg>
