<svg xmlns="http://www.w3.org/2000/svg" height="20" width="20" viewBox="0 0 125 125"><path d="M120.206 55.806L66.714 2.316c-3.08-3.08-8.075-3.08-11.159 0l-11.107 11.11 14.09 14.09c3.275-1.106 7.03-.364 9.64 2.246a9.374 9.374 0 0 1 2.226 9.7l13.58 13.579c3.287-1.133 7.076-.4 9.701 2.228 3.667 3.666 3.667 9.608 0 13.276a9.389 9.389 0 0 1-15.322-10.21L65.696 45.669v33.33a9.454 9.454 0 0 1 2.482 1.774c3.666 3.666 3.666 9.608 0 13.28-3.667 3.665-9.612 3.665-13.276 0-3.667-3.672-3.667-9.614 0-13.28a9.375 9.375 0 0 1 3.075-2.048V45.087a9.305 9.305 0 0 1-3.075-2.049c-2.777-2.776-3.446-6.852-2.021-10.263L38.99 18.882 2.31 55.559a7.895 7.895 0 0 0 0 11.161l53.494 53.49a7.892 7.892 0 0 0 11.159 0l53.242-53.242a7.892 7.892 0 0 0 0-11.162" fill="#100f0d"/></svg>