<svg xmlns="http://www.w3.org/2000/svg" viewBox="0 0 288.70709 310.39542" width="288.7" height="310.4">
  <path class="logo-secondary" d="M279.8 248.4c-16 3.8-24 7.3-44 20.2-30.8 20-64.6 29.3-64.6 29.3s-2.8 4-11 6c-14 3.4-66.6 6.3-71.4 6.4-13 0-20.8-3.3-23-8.6-6.7-16 9.6-23 9.6-23s-3.6-2.2-5.7-4.2c-2-2-4-5.7-4.5-4.3-2.5 6.2-3.8 21-10.5 27.8-9.2 9.4-26.6 6.3-37 1-11.2-6 1-20 1-20s-6.2 3.4-11-4C3.2 268-1 256.5.2 242.2c1.2-16.3 19.4-32 19.4-32s-3.2-24.2 7.3-49c9.4-22.4 35-40.5 35-40.5S40.4 97 48.4 75.6c5.3-14 7.4-14 9-14.5 6-2.2 12-4.7 16.2-9.4 21.5-23.2 49-18.8 49-18.8s13-39.5 25-31.8c3.6 2.4 17 32 17 32s14-8.3 15.7-5.2c8.5 16.7 9.5 48.6 5.7 68-6.3 32-22.3 49.2-28.7 60-1.6 2.5 17 10.4 29 43 10.8 30 1 55 2.8 58l.5.6s12.5 1 37.6-14.4c13.5-8.3 29.4-17.6 47.5-17.8 17.5-.3 18.4 20.2 5.2 23.4z"/>
</svg>
