<svg width="340" height="340" xmlns="http://www.w3.org/2000/svg">
 <!-- Created with Method Draw - http://github.com/duopixel/Method-Draw/ -->
 <g>
  <title>Layer 1</title>
  <ellipse stroke="#ffffff" ry="78.499997" rx="83.000003" id="svg_21" cy="91.937503" cx="245.500003" stroke-width="5" fill="#5fbf00"/>
  <ellipse stroke="#ffffff" ry="99.999997" rx="81.5" id="svg_22" cy="138.437497" cx="272.000004" stroke-opacity="null" stroke-width="5" fill="#ffffff"/>
  <ellipse ry="48.5" rx="48.5" id="svg_2" cy="74.9375" cx="98" stroke-width="5" stroke="#ffffff" fill="#5f00bf"/>
  <ellipse ry="48.5" rx="48.5" id="svg_7" cy="202.9375" cx="64" stroke-width="5" stroke="#ffffff" fill="#5f00bf"/>
  <ellipse ry="48.5" rx="48.5" id="svg_8" cy="281.9375" cx="98" stroke-width="5" stroke="#ffffff" fill="#5f00bf"/>
  <ellipse ry="48.5" rx="48.5" id="svg_9" cy="253.9375" cx="173" stroke-width="5" stroke="#ffffff" fill="#5f00bf"/>
  <ellipse ry="48.5" rx="48.5" id="svg_10" cy="209.9375" cx="248" stroke-width="5" stroke="#ffffff" fill="#5f00bf"/>
  <ellipse ry="48.5" rx="48.5" id="svg_11" cy="94.9375" cx="213" stroke-width="5" stroke="#ffffff" fill="#5f00bf"/>
  <ellipse ry="48.5" rx="48.5" id="svg_14" cy="137.9375" cx="253" stroke-width="5" stroke="#ffffff" fill="#5f00bf"/>
  <ellipse ry="48.5" rx="48.5" id="svg_6" cy="175.9375" cx="194" stroke-width="5" stroke="#ffffff" fill="#5f00bf"/>
  <ellipse ry="48.5" rx="48.5" id="svg_12" cy="127.9375" cx="61" stroke-width="5" stroke="#ffffff" fill="#5f00bf"/>
  <ellipse ry="48.5" rx="48.5" id="svg_13" cy="59.9375" cx="151" stroke-width="5" stroke="#ffffff" fill="#5f00bf"/>
  <ellipse ry="48.5" rx="48.5" id="svg_4" cy="102.9375" cx="169" stroke-width="5" stroke="#ffffff" fill="#5f00bf"/>
  <ellipse ry="48.5" rx="48.5" id="svg_5" cy="218.9375" cx="125" stroke-width="5" stroke="#ffffff" fill="#5f00bf"/>
  <ellipse ry="48.5" rx="48.5" id="svg_3" cy="142.9375" cx="112" stroke-width="5" stroke="#ffffff" fill="#5f00bf"/>
 </g>
</svg>
