<svg xmlns="http://www.w3.org/2000/svg" viewBox="0 0 288.6 310.4"><path fill="#2C8EBB" d="M279.7 248.5c-16 3.8-24.1 7.3-43.9 20.2-31 20-64.8 29.3-64.8 29.3s-2.8 4.2-10.9 6.1c-14 3.4-66.7 6.3-71.5 6.4-12.9.1-20.8-3.3-23-8.6-6.7-16 9.6-23 9.6-23s-3.6-2.2-5.7-4.2c-1.9-1.9-3.9-5.7-4.5-4.3-2.5 6.1-3.8 21-10.5 27.7-9.2 9.3-26.6 6.2-36.9.8-11.3-6 .8-20.1.8-20.1s-6.1 3.6-11-3.8C3 268.2-1.1 256.6 0 242.3 1.4 225.8 19.6 210 19.6 210s-3.2-24.1 7.3-48.8c9.5-22.5 35.1-40.6 35.1-40.6S40.5 96.9 48.5 75.4c5.2-14 7.3-13.9 9-14.5 6-2.3 11.8-4.8 16.1-9.5 21.5-23.2 48.9-18.8 48.9-18.8S135.3-6.7 147.3 1c3.7 2.4 17 32 17 32s14.2-8.3 15.8-5.2c8.6 16.7 9.6 48.6 5.8 68-6.4 32-22.4 49.2-28.8 60-1.5 2.5 17.2 10.4 29 43.1 10.9 29.9 1.2 55 2.9 57.8.3.5.4.7.4.7s12.5 1 37.6-14.5c13.4-8.3 29.3-17.6 47.4-17.8 17.5-.3 18.4 20.3 5.3 23.4z"/></svg>
