<?xml version="1.0" encoding="utf-8"?>
<svg id="Layer_1" viewBox="0 0 1154.8 518" xmlns="http://www.w3.org/2000/svg">
  <style>.st0{fill:#fff}.st1{fill:red}</style>
  <path class="st0" d="M718.6 257.8c-8 27.6-20.8 47.6-35.2 63.6V181c0-9.6-8.4-17.6-21.6-17.6-5.6 0-10.4 2.8-10.4 6.8 0 2.8 1.6 5.2 1.6 12.8v64.4c-4.8 28-16.8 54-32.8 54-11.6 0-18.4-11.6-18.4-33.2 0-33.6 4.4-51.2 11.6-80.8 1.6-6 13.2-22-6.4-22-21.2 0-18.4 8-21.2 14.8 0 0-13.4 47.6-13.4 90 0 34.8 14.6 57.6 41.4 57.6 17.2 0 29.6-11.6 39.2-27.6V351c-26.4 23.2-49.6 43.6-49.6 84 0 25.6 16 46 38.4 46 20.4 0 41.6-14.8 41.6-56.8V355c21.6-18.8 44.8-42.4 58.4-88.8.4-1.6.4-3.6.4-4 0-7.6-7.6-16.4-14-16.4-4 0-7.2 3.6-9.6 12zm-76.8 198c-6.4 0-10.4-9.6-10.4-22 0-24 8.8-39.2 21.6-52.4v42.8c0 7.6 1.6 31.6-11.2 31.6z"/>
  <path class="st0" d="M833.4 301c-9.6 0-13.6-9.6-13.6-18.4v-66c0-9.6-8.4-17.6-21.6-17.6-5.6 0-10.4 2.8-10.4 6.8 0 2.8 1.6 5.2 1.6 12.8v61.6C785 291.4 777.8 301 767 301c-14 0-22.8-12-22.8-32.8 0-57.6 35.6-83.6 66-83.6 4 0 8 .8 11.6.8 4 0 5.2-2.4 5.2-9.2 0-10.4-7.6-16.8-18.4-16.8-48.8 0-95.2 40.8-95.2 107.6 0 34 16.4 60.4 47.6 60.4 15.2 0 26.4-7.2 34.4-16.4 6 9.6 16.8 16.4 30.8 16.4 34.4 0 50.4-36 57.2-62.4.4-1.6.4-2.4.4-2.8 0-7.6-7.6-16.4-14-16.4-4 0-8 3.6-9.6 12-3.6 17.6-10.8 43.2-26.8 43.2z"/>
  <path class="st0" d="M949 327.4c34.4 0 50-36 57.2-62.4 0-.8.4-1.6.4-2.8 0-7.6-7.6-16.4-14-16.4-4 0-8 3.6-9.6 12-3.6 17.6-10.4 43.2-28.8 43.2-10.8 0-16-10.4-16-21.6 0-40 18-87.2 18-92 1.6-9.2-14.4-22.4-19.2-22.4h-20.8c-4 0-8 0-21.2-1.6-4.4-16.4-15.6-21.2-25.2-21.2-10.4 0-20 7.2-20 18.4 0 11.6 7.2 20 17.2 25.6-.4 20.4-2 53.6-6.4 69.6-3.6 13.6 17.2 28 22.4 11.2 7.2-23.2 9.6-58 10-73.6h34.8c-12.8 34.4-20 62.8-20 88.4 0 35.2 22.4 45.6 41.2 45.6z"/>
  <path class="st0" d="M 984.6 183 C 984.6 175.4 983 173 983 170.2 C 983 166.2 987.8 163.4 993.4 163.4 C 1006.6 163.4 1015 171.4 1015 181 L 1015 199 C 1025.8 176.6 1040.2 159.4 1059.8 159.4 C 1086.6 159.4 1093 181.4 1093 199.8 L 1093 282.6 C 1093 286.2 1093 301 1103.4 301 C 1119.4 301 1127.6 275.4 1131.2 257.8 C 1132.8 249.4 1136.8 245.8 1140.8 245.8 C 1147.2 245.8 1154.8 254.6 1154.8 262.2 C 1154.8 262.6 1154.8 263.4 1154.4 265 C 1147.6 291.4 1130.6 327.4 1096.2 327.4 C 1075 327.4 1062.6 310.2 1062.6 289.8 L 1062.6 208.6 C 1062.6 196.2 1061.8 185.8 1054.2 185.8 C 1042.6 185.8 1017.8 220.2 1015 251.8 L 1015 310.2 C 1015 317.8 1015.4 327.4 1003.8 327.4 C 995.8 327.4 984.6 324.6 984.6 309.8 Z M 259 0 C 402 0 518 116 518 259 C 518 402 402 518 259 518 C 116 518 0 402 0 259 C 0 116 116 0 259 0 Z M 435.2 337.5 C 433.4 323.3 421.4 313.5 406 313.7 C 383 314 363.7 325.9 350.9 333.8 C 345.9 336.9 341.6 339.2 337.9 340.9 C 338.7 329.3 338 314.1 332 297.4 C 324.7 277.4 314.9 265.1 307.9 258 C 316 246.2 327.1 229 332.3 202.4 C 336.8 179.7 335.4 144.4 325.1 124.6 C 323 120.6 319.5 117.7 315.1 116.5 C 313.3 116 309.9 115 303.2 116.9 C 293.1 96 289.6 93.8 286.9 92 C 281.3 88.4 274.7 87.6 268.5 89.9 C 260.2 92.9 253.1 100.9 246.4 115.1 C 245.4 117.2 244.5 119.2 243.7 121.2 C 231 122.1 211 126.7 194.1 145 C 192 147.3 187.9 149 183.6 150.6 L 183.7 150.6 C 174.9 153.7 170.9 160.9 166 173.9 C 159.2 192.1 166.2 210 173.1 221.6 C 163.7 230 151.2 243.4 144.6 259.1 C 136.4 278.5 135.5 297.5 135.8 307.8 C 128.8 315.2 118 329.1 116.8 344.7 C 115.2 366.5 123.1 381.3 126.6 386.7 C 127.6 388.3 128.7 389.6 129.9 390.9 C 129.5 393.6 129.4 396.5 130 399.5 C 131.3 406.5 135.7 412.2 142.4 415.8 C 155.6 422.8 174 425.8 188.2 418.7 C 193.3 424.1 202.6 429.3 219.5 429.3 L 220.5 429.3 C 224.8 429.3 279.4 426.4 295.3 422.5 C 302.4 420.8 307.3 417.8 310.5 415.1 C 320.7 411.9 348.9 402.3 375.5 385.1 C 394.3 372.9 400.8 370.3 414.8 366.9 C 428.4 363.6 436.9 351.2 435.2 337.5 Z M 411.4 352.2 C 395.4 356 387.3 359.5 367.5 372.4 C 336.6 392.4 302.8 401.7 302.8 401.7 C 302.8 401.7 300 405.9 291.9 407.8 C 277.9 411.2 225.2 414.1 220.4 414.2 C 207.5 414.3 199.6 410.9 197.4 405.6 C 190.7 389.6 207 382.6 207 382.6 C 207 382.6 203.4 380.4 201.3 378.4 C 199.4 376.5 197.4 372.7 196.8 374.1 C 194.3 380.2 193 395.1 186.3 401.8 C 177.1 411.1 159.7 408 149.4 402.6 C 138.1 396.6 150.2 382.5 150.2 382.5 C 150.2 382.5 144.1 386.1 139.2 378.7 C 134.8 371.9 130.7 360.3 131.8 346 C 133 329.7 151.2 313.9 151.2 313.9 C 151.2 313.9 148 289.8 158.5 265.1 C 168 242.6 193.6 224.5 193.6 224.5 C 193.6 224.5 172.1 200.7 180.1 179.3 C 185.3 165.3 187.4 165.4 189.1 164.8 C 195.1 162.5 200.9 160 205.2 155.3 C 226.7 132.1 254.1 136.5 254.1 136.5 C 254.1 136.5 267.1 97 279.1 104.7 C 282.8 107.1 296.1 136.7 296.1 136.7 C 296.1 136.7 310.3 128.4 311.9 131.5 C 320.5 148.2 321.5 180.1 317.7 199.5 C 311.3 231.5 295.3 248.7 288.9 259.5 C 287.4 262 306.1 269.9 317.9 302.6 C 328.8 332.5 319.1 357.6 320.8 360.4 C 321.1 360.9 321.2 361.1 321.2 361.1 C 321.2 361.1 333.7 362.1 358.8 346.6 C 372.2 338.3 388.1 329 406.2 328.8 C 423.7 328.5 424.6 349 411.4 352.2 Z"/>
</svg>