<svg viewBox="0 0 24 24" xmlns="http://www.w3.org/2000/svg">
  <path d="M23.956 11.314a.478.478 0 0 0-.124-.175c-.014-.013-.02-.031-.036-.042-.007-.005-.017-.005-.024-.01-.009-.006-.014-.015-.024-.021l-2.245-1.283c.3-.289.497-.68.497-1.122 0-.597-.333-1.135-.868-1.404l-3.664-1.832.425-1.063.288-.144a.965.965 0 0 0 .776.101l3.854-1.102A1.648 1.648 0 0 0 24 1.64C24 .736 23.264 0 22.36 0h-.46c-.372 0-.736.128-1.025.359l-2.804 2.243a.965.965 0 0 0-.356.731l-.439.219a.498.498 0 0 0-.241.262l-.465 1.162-1.397-.698c-1.067-.534-2.435-.245-3.196.668l-4.26 5.112-7.345 1.959c-.028.008-.049.025-.075.037-.015.007-.033.004-.048.013-.009.005-.013.016-.021.021a.497.497 0 0 0-.156.157l-.01.021a.486.486 0 0 0-.054.203c0 .011-.008.02-.008.031v7a.5.5 0 0 0 .252.434l7 4a.5.5 0 0 0 .397.043l16-5A.499.499 0 0 0 24 18.5v-7c0-.017-.01-.031-.011-.048a.506.506 0 0 0-.033-.138zM21.501 1.14A.64.64 0 0 1 21.9 1h.461a.64.64 0 0 1 .176 1.255l-3.589 1.026-.001-.005c-.011-.023-.031-.037-.045-.057l2.599-2.079zm-8.755 4.446A1.628 1.628 0 0 1 13.998 5c.251 0 .503.06.731.171l1.469.734-.101.252-4.855 2.914a.5.5 0 0 0 .515.857l5-3a.497.497 0 0 0 .207-.243l.132-.33 3.591 1.795a.57.57 0 0 1 .315.514.57.57 0 0 1-.432.553l-.243.061-.004.001-13.457 3.364 5.88-7.057zm-7.669 8.18a.498.498 0 0 0 .545.218l1.68-.42 1.441.865a.504.504 0 0 0 .686-.171.5.5 0 0 0-.171-.686l-.585-.351 1.922-.48 1.148.688a.504.504 0 0 0 .686-.171.5.5 0 0 0-.171-.686l-.291-.174 1.923-.481.852.512a.5.5 0 0 0 .519-.855l1.923-.481.559.335a.5.5 0 0 0 .686-.17.493.493 0 0 0 .01-.478l1.943-.486 1.874 1.071-14.697 4.593-5.754-3.288 4.804-1.281-1.493 1.791a.501.501 0 0 0-.039.586zM7 22.638L1 19.21v-5.848l6 3.428v5.848zm16-4.506L8 22.82v-5.953l15-4.687v5.952z" fill-rule="nonzero" fill="#666"/>
</svg>
