<svg xmlns="http://www.w3.org/2000/svg" viewBox="0 0 30 30">
  <path d="M6.5 2a.5.5 0 1 0 0 1 .5.5 0 0 0 0-1zm3 0a.5.5 0 1 0 0 1 .5.5 0 0 0 0-1zm-6 0a.5.5 0 1 0 0 1 .5.5 0 0 0 0-1zm22.6 22.1L24 26.3v-6.8a.5.5 0 0 0-1 0v6.8L20.9 24a.5.5 0 0 0-.8.8l3 3h.2a.5.5 0 0 0 .4 0h.2l3-3a.5.5 0 0 0-.8-.8zM15.5 26H3a2 2 0 0 1-2-2V5h25v10.5a.5.5 0 0 0 1 0V3a3 3 0 0 0-3-3H3a3 3 0 0 0-3 3v21a3 3 0 0 0 3 3h12.5a.5.5 0 1 0 0-1zM1 3c0-1.1.9-2 2-2h21a2 2 0 0 1 2 2v1H1V3zm22.5 14a6.5 6.5 0 1 0 0 13 6.5 6.5 0 0 0 0-13zm0 12a5.5 5.5 0 1 1 0-11 5.5 5.5 0 0 1 0 11z"/>
</svg>