<svg viewBox="0 0 23 22" xmlns="http://www.w3.org/2000/svg">
  <path d="M22.975 8.317a.501.501 0 0 0-.408-.335l-7.242-.96L11.949.254c-.168-.339-.727-.339-.895 0L7.677 7.022l-7.242.96a.5.5 0 1 0-.288.849l5.31 5.311-1.446 7.237a.5.5 0 0 0 .714.546l6.776-3.388 6.776 3.388a.492.492 0 0 0 .526-.05.502.502 0 0 0 .187-.496l-1.447-7.237 5.31-5.31a.5.5 0 0 0 .122-.515zm-6.327 5.307a.501.501 0 0 0-.137.452l1.3 6.498-6.086-3.043a.508.508 0 0 0-.448 0L5.19 20.574l1.3-6.498a.5.5 0 0 0-.137-.452L1.57 8.84l6.502-.862a.5.5 0 0 0 .382-.272L11.5 1.598l3.047 6.108a.5.5 0 0 0 .382.272l6.502.862-4.784 4.784z" fill-rule="nonzero" fill="#666"/>
</svg>
