<svg xmlns="http://www.w3.org/2000/svg" viewBox="0 0 30 30">
  <g fill="#666">
    <path d="M27 26.5H3c-1.7 0-3-1.3-3-3v-15c0-1.7 1.3-3 3-3h4.5c1.3 0 2.4.8 2.8 2.1v.1l.1.5c.3.8 1 1.3 1.9 1.3H27c1.7 0 3 1.3 3 3v11c0 1.7-1.3 3-3 3zM3 6.5c-1.1 0-2 .9-2 2v15c0 1.1.9 2 2 2h24c1.1 0 2-.9 2-2v-11c0-1.1-.9-2-2-2H12.3c-1.3 0-2.4-.8-2.8-2.1v-.1l-.1-.5C9.1 7 8.3 6.5 7.5 6.5H3z"/>
    <path d="M28.5 11c-.3 0-.5-.2-.5-.5v-4c0-1.1-.9-2-2-2H4c-1.1 0-2 .9-2 2 0 .3-.2.5-.5.5S1 6.8 1 6.5c0-1.7 1.3-3 3-3h22c1.7 0 3 1.3 3 3v4c0 .3-.2.5-.5.5z"/>
  </g>
</svg>
