<svg viewBox="0 0 24 22" xmlns="http://www.w3.org/2000/svg">
  <g fill-rule="nonzero" fill="#666">
    <path d="M18.5 17h-5a.5.5 0 0 1 0-1h5c2.481 0 4.5-2.019 4.5-4.5S20.981 7 18.5 7c-.273.004-.538-.171-.573-.422C17.474 3.398 14.711 1 11.5 1A6.508 6.508 0 0 0 5 7.5c0 .28.024.578.076.938a.5.5 0 0 1-.12.402c-.097.109-.248.147-.384.169a.932.932 0 0 1-.105-.01C2.57 9 1 10.57 1 12.5S2.57 16 4.5 16h5a.5.5 0 0 1 0 1h-5A4.505 4.505 0 0 1 0 12.5a4.507 4.507 0 0 1 4.022-4.475A6.391 6.391 0 0 1 4 7.5C4 3.364 7.364 0 11.5 0c3.565 0 6.651 2.561 7.346 6.023C21.758 6.232 24 8.609 24 11.5c0 3.033-2.467 5.5-5.5 5.5z"/>
    <path d="M11.5 22a.504.504 0 0 1-.354-.146l-2-2a.5.5 0 0 1 .707-.707L11 20.293V11.5a.5.5 0 0 1 1 0v10a.5.5 0 0 1-.5.5z"/>
    <path d="M11.5 22a.5.5 0 0 1-.354-.853l2-2a.5.5 0 0 1 .707.707l-2 2A.498.498 0 0 1 11.5 22z"/>
  </g>
</svg>
