<svg xmlns="http://www.w3.org/2000/svg" viewBox="0 0 24 24">
  <g fill="#666">
    <path d="M7.1 14.5l1.816-2.724c.153-.23.09-.54-.14-.693-.227-.153-.538-.092-.692.14l-2 3c-.112.167-.112.386 0 .554l2 3c.097.145.255.223.416.223.096 0 .192-.027.277-.085.23-.153.292-.463.14-.693L7.1 14.5zm3.224 4.468c.058.022.117.032.176.032.202 0 .393-.124.468-.324l3-8c.098-.26-.033-.547-.292-.644-.256-.097-.547.033-.644.292l-3 8c-.098.26.033.547.292.644zM16.9 14.5l-1.816 2.723c-.153.23-.09.54.14.693.084.057.18.084.276.084.16 0 .32-.078.416-.222l2-3c.112-.168.112-.387 0-.555l-2-3c-.154-.23-.465-.292-.693-.14-.23.154-.292.464-.14.694L16.9 14.5z" />
    <path d="M20.5 0h-11c-.067 0-.133.014-.194.04-.02.007-.033.022-.05.033-.038.022-.078.042-.11.073l-6 6c-.023.023-.036.054-.054.08-.018.028-.04.05-.053.08-.028.062-.04.127-.04.194v17c0 .276.222.5.5.5h17c.274 0 .5-.224.5-.5V.5c0-.276-.226-.5-.5-.5zM9 1.707V6H4.707L9 1.707zM20 23H4V7h5.5c.276 0 .5-.224.5-.5V1h10v22z"/>
  </g>
</svg>
