<svg viewBox="0 0 24 18" xmlns="http://www.w3.org/2000/svg">
  <g fill-rule="nonzero" fill="#666">
    <path d="M21 18H3c-1.654 0-3-1.346-3-3s1.346-3 3-3h18c1.654 0 3 1.346 3 3s-1.346 3-3 3zM3 13c-1.103 0-2 .897-2 2s.897 2 2 2h18c1.103 0 2-.897 2-2s-.897-2-2-2H3z"/>
    <path d="M23 14a.502.502 0 0 1-.473-.336L18.726 2.682A2.501 2.501 0 0 0 16.364 1H7.636a2.501 2.501 0 0 0-2.362 1.682L1.473 13.664a.5.5 0 0 1-.945-.327L4.329 2.355A3.502 3.502 0 0 1 7.636 0h8.728c1.49 0 2.819.946 3.308 2.355l3.801 10.981A.5.5 0 0 1 23 14zM3.53 16a.504.504 0 0 1-.505-.5c0-.276.219-.5.495-.5h.01a.5.5 0 0 1 0 1z"/>
    <circle cx="21" cy="15" r="1"/>
    <path d="M5.53 16a.504.504 0 0 1-.505-.5c0-.276.219-.5.495-.5h.01a.5.5 0 0 1 0 1z"/>
  </g>
</svg>
