<svg xmlns="http://www.w3.org/2000/svg" viewBox="0 0 19 24">
  <g fill="#666">
    <path d="M17.54 0H1.95C1.143 0 .487.673.487 1.5v21c0 .827.656 1.5 1.462 1.5h15.59c.805 0 1.46-.673 1.46-1.5v-21c0-.827-.655-1.5-1.46-1.5zm-1.948 3c.268 0 .487.224.487.5s-.22.5-.49.5a.495.495 0 0 1-.488-.5c0-.276.22-.5.488-.5zm-3.898 0c.268 0 .487.224.487.5s-.22.5-.484.5a.495.495 0 0 1-.487-.5c0-.276.22-.5.486-.5zM7.796 3c.268 0 .487.224.487.5s-.22.5-.487.5a.495.495 0 0 1-.487-.5c0-.276.216-.5.484-.5zM3.898 3c.268 0 .487.224.487.5s-.22.5-.487.5a.495.495 0 0 1-.487-.5c0-.276.22-.5.49-.5zm14.13 19.5c0 .276-.22.5-.487.5H1.95a.495.495 0 0 1-.488-.5v-21c0-.276.22-.5.487-.5h1.46v1.092A1.495 1.495 0 0 0 2.435 3.5c0 .827.656 1.5 1.462 1.5.805 0 1.46-.673 1.46-1.5 0-.65-.41-1.2-.974-1.408V1H7.31v1.092A1.495 1.495 0 0 0 6.334 3.5c0 .827.656 1.5 1.462 1.5.806 0 1.462-.673 1.462-1.5 0-.65-.41-1.2-.975-1.408V1h2.924v1.092a1.495 1.495 0 0 0-.975 1.408c0 .827.656 1.5 1.462 1.5.806 0 1.462-.673 1.462-1.5 0-.65-.41-1.2-.975-1.408V1h2.926v1.092A1.495 1.495 0 0 0 14.13 3.5c0 .827.656 1.5 1.462 1.5.806 0 1.46-.673 1.46-1.5 0-.65-.407-1.2-.973-1.408V1h1.46c.27 0 .486.224.486.5v21z"/>
    <path d="M15.592 10H3.898a.494.494 0 0 0-.487.5c0 .276.22.5.49.5h11.694a.494.494 0 0 0 .487-.5c0-.276-.22-.5-.487-.5zm0 4H3.898a.494.494 0 0 0-.487.5c0 .276.22.5.49.5h11.694a.494.494 0 0 0 .487-.5c0-.276-.22-.5-.487-.5zm-2.924 4h-8.77a.494.494 0 0 0-.487.5c0 .276.22.5.49.5h8.77a.494.494 0 0 0 .488-.5c0-.276-.22-.5-.488-.5z"/>
  </g>
</svg>
