<svg viewBox="0 0 24 24" xmlns="http://www.w3.org/2000/svg">
  <g fill-rule="nonzero" fill="#666">
    <path d="M9.5 24a.5.5 0 0 1-.5-.5v-8a.5.5 0 0 0-.5-.5h-8a.5.5 0 0 1-.354-.854L13.853.439C14.133.16 14.519 0 14.914 0H22.5c.827 0 1.5.673 1.5 1.5v7.586c0 .4-.156.777-.439 1.061L9.853 23.854A.5.5 0 0 1 9.5 24zM1.707 14H8.5c.827 0 1.5.673 1.5 1.5v6.793L22.853 9.439A.504.504 0 0 0 23 9.086V1.5a.5.5 0 0 0-.5-.5h-7.586a.504.504 0 0 0-.354.146L1.707 14z"/>
    <path d="M18.5 8A2.503 2.503 0 0 1 16 5.5C16 4.122 17.121 3 18.5 3S21 4.122 21 5.5 19.879 8 18.5 8zm0-4c-.827 0-1.5.673-1.5 1.5S17.673 7 18.5 7 20 6.327 20 5.5 19.327 4 18.5 4z"/>
  </g>
</svg>
