<svg xmlns="http://www.w3.org/2000/svg" width="20" height="20" fill="currentColor" class="material-design-icon__svg" viewBox="10 1.5 4 21"><path fill="#393842" d="M14.898 16.754l0.302 2.779 0.667-0.482-0.483-4.44c0.357-0.465 0.774-1.039 0.884-1.318 0.177-0.451-0.058-2.761-0.176-3.824l0.726-1.95v-0.063h0c0-1.082-1.602-4.078-1.785-4.416l-0.124-0.229c-0.122-0.237-0.213-0.406-0.247-0.47l-0.45-0.833-0.644 4.463-0.238 1.719c-0.175-0.054-0.395-0.113-0.636-0.156-0.215-0.245-0.453-0.473-0.691-0.473-0.125 0-0.238 0.17-0.343 0.424-0.388 0.038-0.749 0.133-1.006 0.214l-0.211-1.728-0.226-1.564c0-0.003-0.419-2.898-0.419-2.898l-0.459 0.833c-0.042 0.077-0.167 0.309-0.33 0.627l-0.040 0.072c-0.183 0.338-1.798 3.334-1.798 4.416v0.064l0.74 1.95c-0.118 1.063-0.344 3.373-0.167 3.824 0.11 0.282 0.536 0.865 0.896 1.332l-0.485 4.47 0.667 0.466 0.301-2.778 0.086 0.060 0.023-0.217c0.045 0.216 0.104 0.432 0.178 0.634 0.153 0.416 0.423 0.73 0.769 0.917 0.021 0.995 0.955 1.532 1.835 1.532 0.873 0 1.8-0.537 1.82-1.533 0.345-0.186 0.615-0.501 0.768-0.916 0.077-0.208 0.136-0.432 0.182-0.654l0.023 0.213 0.090-0.065z"/><path fill="#393842" d="M18.587 17.842l-6.587 4.652-6.587-4.652v-10.848c0 0 2.436-0.905 6.596-0.905s6.578 0.905 6.578 0.905v10.848z"/><path fill="#393842" d="M14.834 14.916h-2.839v-4.74l-2.881 4.601-0.448 4.725 3.329 2.371 3.359-2.388z"/><path fill="#393842" d="M11.946 21.824l-6.113-4.32v-10.075c0 0 2.26-0.841 6.121-0.841s6.104 0.841 6.104 0.841v10.075l-6.113 4.32z"/><path fill="#393842" d="M12.035 6.589c-0.003 0-0.006 0-0.008 0v15.235h0l6.113-4.32v-10.074c0 0-2.244-0.841-6.104-0.841v0 0z"/><path fill="#393842" d="M15.337 19.476l-0.519-4.56h-2.84v6.946z"/><path fill="#393842" d="M8.666 19.502l3.329 2.371v-11.697l-2.881 4.601z"/><path fill="#393842" d="M13.428 18.155c0 0.782-0.737 1.169-1.413 1.169s-1.427-0.388-1.427-1.169z"/><path fill="#393842" d="M13.013 17.712c0 0.917-0.498 1.163-1.006 1.163s-1.006-0.246-1.006-1.163z"/><path fill="#fff" d="M12.008 18.56c-0.543 0-0.806-0.395-0.806-1.206h0.259c0 0.95 0.37 0.95 0.548 0.95s0.548 0 0.548-0.95h0.259c0 0.811-0.264 1.206-0.806 1.206v0z"/><path fill="#fff" d="M16.314 8.009c0-0.989-1.686-4.101-1.686-4.101l-0.57 3.947-0.512 0.833-1.535 0.062-0.006 0.012v-0.012l-1.535-0.062-0.512-0.833-0.57-3.947c0 0-1.687 3.112-1.687 4.101l0.713 1.901c0 0-0.36 3.192-0.195 3.61s1.3 1.816 1.3 1.816-0.003 1.175 0.308 2.020c0.222 0.603 0.711 0.848 1.18 0.848 0.718 0 0.998-0.653 0.998-0.653s0.288 0.653 1.005 0.653c0.468 0 0.957-0.244 1.18-0.848 0.311-0.845 0.308-2.020 0.308-2.020s1.137-1.398 1.301-1.816c0.164-0.418-0.196-3.61-0.196-3.61l0.712-1.901z"/><path fill="#fff" d="M12.008 8.756l-0.003 0.006v-0.012l-1.535-0.062-0.512-0.833-0.571-3.947c0 0-1.686 3.112-1.686 4.101l0.712 1.901c0 0-0.359 3.192-0.196 3.61s1.3 1.816 1.3 1.816-0.003 1.175 0.308 2.020c0.222 0.603 0.712 0.848 1.18 0.848 0.718 0 0.999-0.653 0.999-0.653s0.001 0.002 0.003 0.007v-8.802h-0z"/><path fill="#393842" d="M15.617 10.097c-0.131-0.271 0.055-0.913 0.055-0.913-1.065-1.082-1.331-3.338-1.331-3.338-0.199 0.711-0.631 2.807-0.631 2.807s-0.795-0.293-1.699-0.295v0h-0.007c-0.050 0-0.099 0.002-0.147 0.003v8.845l0.068 0.098v-0.048h0.042v0.048l0-0.048h0.125v0.048l0.736-1.066 0.16-2.992 0.917 1.036 1.181 0.342c0 0 0.442-0.312 0.442-0.311 0.188-0.26 0.25-0.482 0.295-0.597 0.164-0.419-0.204-3.62-0.204-3.62v0z"/><path fill="#393842" d="M12.016 8.358c-0.001 0-0.002-0-0.003-0v0c-0.905 0.002-1.699 0.295-1.699 0.295s-0.432-2.096-0.631-2.807c0 0-0.266 2.256-1.331 3.338 0 0 0.186 0.642 0.055 0.913 0 0-0.368 3.202-0.204 3.62 0.045 0.115 0.108 0.337 0.295 0.597 0-0.001 0.442 0.311 0.442 0.311l1.18-0.342 0.916-1.036 0.16 2.992 0.736 1.066v-0.048h0.084v-8.897h0z"/><path fill="#393842" d="M14.15 12.1v0h-1.379v0.014c0 0.477 0.417 0.863 0.905 0.863s0.905-0.386 0.905-0.863v-0.014h-0.431z"/><path fill="#fff" d="M13.115 12.1v0.014c0 0.284 0.231 0.514 0.517 0.514s0.517-0.23 0.517-0.514v-0.014h-1.035z"/><path fill="#393842" d="M13.793 12.1h-0.242c-0.002 0-0.004 0.001-0.006 0.002 0.030 0.006 0.047 0.074 0.040 0.119-0.010 0.069-0.069 0.116-0.136 0.117 0.020 0.090 0.094 0.162 0.192 0.176 0.125 0.018 0.241-0.068 0.259-0.192 0.013-0.091-0.032-0.222-0.106-0.222v0z"/><path fill="#393842" d="M10.82 12.1v0h-1.379v0.014c0 0.477 0.417 0.863 0.905 0.863s0.905-0.386 0.905-0.863v-0.014h-0.431z"/><path fill="#fff" d="M9.786 12.1v0.014c0 0.284 0.231 0.514 0.517 0.514s0.517-0.23 0.517-0.514v-0.014h-1.035z"/><path fill="#393842" d="M10.463 12.1h-0.243c-0.002 0-0.004 0.001-0.006 0.002 0.030 0.006 0.047 0.074 0.040 0.119-0.010 0.069-0.069 0.116-0.137 0.117 0.020 0.090 0.094 0.162 0.192 0.176 0.125 0.018 0.242-0.068 0.259-0.192 0.013-0.091-0.031-0.222-0.106-0.222v0z"/><path fill="#fff" d="M14.046 11.692c0.058-0.063 0.55-0.615-0.108-0.615-0.594 0-1.022 0.475-1.135 0.615h1.243z"/><path fill="#fff" d="M11.209 11.692c-0.113-0.14-0.541-0.615-1.135-0.615-0.657 0-0.166 0.552-0.108 0.615h1.243z"/><path fill="#393842" d="M9.124 11.86h2.516v0.234h-2.516v-0.234z"/><path fill="#393842" stroke="#fff" stroke-width=".2" d="M16.65 8.018c0-1.045-1.546-3.936-1.723-4.262l-0.494-0.916-0.708 4.907-0.327 0.533c-0.316-0.105-0.853-0.251-1.393-0.251s-1.074 0.146-1.388 0.251l-0.327-0.533-0.249-1.72c0-0.003 0.001-0.007 0.001-0.008l-0.002-0-0.46-3.178-0.505 0.916c-0.177 0.326-1.736 3.218-1.736 4.262v0.061l0.714 1.882c-0.114 1.026-0.332 3.255-0.161 3.691 0.107 0.272 0.517 0.835 0.864 1.286l-0.468 4.314 0.644 0.45 0.34-3.138c0.049 0.305 0.121 0.628 0.228 0.919 0.148 0.401 0.409 0.705 0.743 0.885 0.020 0.96 0.922 1.478 1.771 1.478 0.843 0 1.737-0.518 1.756-1.479 0.333-0.18 0.594-0.484 0.742-0.884 0.112-0.303 0.185-0.64 0.233-0.956l0.342 3.15 0.644-0.466-0.466-4.285c0.345-0.449 0.747-1.003 0.853-1.272 0.171-0.436-0.056-2.665-0.17-3.691l0.701-1.882v-0.061h0zM8.048 7.962c0.039-0.542 0.609-1.84 1.152-2.934l0.145 1c-0.055 0.374-0.308 1.841-0.985 2.766l-0.312-0.832zM12.015 19.162c-0.379 0-0.917-0.167-1.051-0.61 0.014 0 0.027 0.002 0.041 0.002 0.073 0 0.142-0.007 0.208-0.016 0.192 0.265 0.491 0.346 0.794 0.346s0.603-0.080 0.796-0.345c0.066 0.009 0.134 0.016 0.206 0.016 0.014 0 0.028-0.001 0.042-0.002-0.133 0.443-0.664 0.61-1.037 0.61v0zM11.578 18.434c0.092-0.041 0.175-0.089 0.249-0.142 0.067 0.019 0.131 0.019 0.181 0.019s0.113 0 0.179-0.019c0.074 0.053 0.157 0.101 0.249 0.142-0.115 0.085-0.258 0.134-0.428 0.134s-0.314-0.048-0.43-0.134v0zM15.476 13.405c-0.1 0.254-0.79 1.162-1.248 1.725l-0.076 0.095 0 0.121c0 0.011-0 1.124-0.287 1.902-0.207 0.563-0.668 0.624-0.856 0.624-0.476 0-0.682-0.432-0.689-0.448l-0.027-0.405h-0.579l-0.026 0.402c-0.008 0.018-0.209 0.449-0.683 0.449-0.189 0-0.649-0.060-0.856-0.623-0.286-0.776-0.287-1.891-0.287-1.902l0-0.121-0.076-0.094c-0.458-0.563-1.148-1.471-1.245-1.719-0.078-0.268 0.051-2.002 0.214-3.455l0.009-0.081-0.129-0.344c0.444-0.46 0.755-1.094 0.97-1.697l0.021 0.147 0.705 1.146 0.275-0.117c0.007-0.003 0.713-0.3 1.398-0.3 0.681 0 1.399 0.298 1.405 0.3l0.275 0.116 0.704-1.146 0.028-0.191c0.212 0.609 0.523 1.254 0.969 1.725l-0.135 0.361 0.009 0.081c0.164 1.453 0.292 3.187 0.217 3.449v0zM15.663 8.774c-0.731-1.018-0.961-2.673-0.981-2.824l0.133-0.922c0.543 1.094 1.113 2.392 1.152 2.934l-0.305 0.812z"/><path fill="#393842" d="M12.819 15.846h-1.618c0 0-0.218 0.375-0.218 0.497 0 0.362 0.996 0.938 0.996 0.938s1.052-0.593 1.052-0.938c0-0.164-0.212-0.497-0.212-0.497v0z"/><path fill="#fff" d="M12.507 16.949c-0.090-0.158-0.207-0.187-0.26-0.065s-0.023 0.35 0.067 0.508c0.090 0.159 0.207 0.187 0.26 0.065s0.023-0.35-0.067-0.508v0z"/><path fill="#fff" d="M11.508 16.949c-0.090 0.158-0.12 0.386-0.067 0.508s0.17 0.093 0.26-0.065c0.090-0.158 0.12-0.386 0.067-0.508s-0.17-0.093-0.26 0.065v0z"/></svg>