<svg viewBox="0 0 24 24" xmlns="http://www.w3.org/2000/svg">
  <g fill-rule="nonzero" fill="#666">
    <path d="M18.5 13a5.507 5.507 0 0 0-5.5 5.5c0 3.032 2.468 5.5 5.5 5.5s5.5-2.468 5.5-5.5-2.468-5.5-5.5-5.5zm0 10a4.505 4.505 0 0 1-4.5-4.5c0-2.481 2.019-4.5 4.5-4.5s4.5 2.019 4.5 4.5-2.019 4.5-4.5 4.5z"/>
    <path d="M20.145 19.147L19 20.292V15.5a.5.5 0 0 0-1 0v4.794l-1.147-1.147a.5.5 0 0 0-.707.707l2 2c.017.016.038.023.056.037.034.026.067.054.107.07a.487.487 0 0 0 .382 0 .516.516 0 0 0 .165-.111l1.996-1.996a.5.5 0 0 0-.707-.707z"/>
    <path d="M11.5 21h-9c-.827 0-1.5-.673-1.5-1.5V5h20v7a.5.5 0 0 0 1 0V2.5C22 1.121 20.879 0 19.5 0h-17A2.502 2.502 0 0 0 0 2.5v17C0 20.879 1.121 22 2.5 22h9a.5.5 0 0 0 0-1zm-9-20h17c.827 0 1.5.673 1.5 1.5V4H1V2.5C1 1.673 1.673 1 2.5 1z"/>
    <circle cx="2.5" cy="2.5" r=".5"/>
    <circle cx="4.5" cy="2.5" r=".5"/>
    <circle cx="6.5" cy="2.5" r=".5"/>
  </g>
</svg>
