<svg xmlns="http://www.w3.org/2000/svg" viewBox="0 0 24 24"><path fill="#666" d="M8 16h-.3-.2-.2H7l-1.4 1.6v.8h.8l.6-.7v1.8c0 .3.2.5.5.5s.5-.2.5-.5v-1.8l.6.7h.8v-.8L8 16zm15.7.7l-.3-.3H23c-.2 0-.5 0-.6-.2v-.6c.3 0 .3-.2.3-.3V15c-1-1-2-1.7-3-2-.3 0-.4 0-.5.2l-.2.3c0 .3-.3.5-.5.5s-.5-.2-.5-.5c0 0 0-.2-.2-.3h-.4c-1 0-2.2.8-3 1.7 0 0-.2 0 0 .3v.3c.3.2.3.4.2.7 0 .2-.4.2-.6 0h-.4c0 .2-.2.3-.3.4l-.3 1.8.3 1.8.3.3h.4c.2 0 .5 0 .6.2v.6c-.3 0-.3.2-.3.3v.4c1 1 2 1.7 3 2 .3 0 .4 0 .5-.2l.2-.3c0-.3.3-.5.5-.5s.5.2.5.5c0 0 0 .2.2.3h.3c1.2 0 2.3-.8 3-1.7.2 0 .3 0 .2-.3 0 0 0-.2-.2-.3-.2-.2-.2-.4 0-.7 0-.2.3-.2.5 0h.4c0-.2.2-.3.3-.4l.3-1.8-.3-1.8zm-.8 2.8c-.7 0-1.2.3-1.5.7-.2.5-.2 1 0 1.6-.4.5-1 .8-1.7 1-.2-.5-.7-.8-1.3-.8s-1 .3-1.3.8c-.7-.2-1.3-.5-1.8-1 .3-.5.3-1 0-1.6-.2-.4-.7-.7-1.3-.7v-1-1c.7 0 1.2-.3 1.5-.8.2-.4.2-1 0-1.5.4-.5 1-.8 1.7-1 .2.5.7.8 1.3.8s1-.3 1.3-.8c.7.2 1.3.5 1.8 1-.3.5-.3 1 0 1.6.2.4.7.7 1.3.7v2zm-10 3l-1 .3V1.2L22 4v8.8c0 .2.2.5.5.5s.5-.3.5-.5V3.5c0-.2-.2-.4-.4-.5l-11-3h-.2L.4 3c-.2 0-.4.3-.4.5v17c0 .2.2.4.4.5l11 3h.2l1.7-.5c.3 0 .4-.3.4-.6 0-.4-.4-.5-.7-.4zM4 3.2l3-.8v9l-.5.6L6 11H5l-.5.8-.5-.5V3zM11 23L1 20V4l2-.7V12l1 1h1l.5-.8.6.7H7l1-1V2l3-.8v21.6zm7.5-6.8C17 16 16 17 16 18.5s1 2.5 2.5 2.5 2.5-1 2.5-2.5-1-2.5-2.5-2.5zm0 4c-.8 0-1.5-.7-1.5-1.5s.7-1.5 1.5-1.5 1.5.7 1.5 1.5-.7 1.5-1.5 1.5z"/></svg>