<svg viewBox="0 0 24 8" xmlns="http://www.w3.org/2000/svg">
  <g fill-rule="nonzero" fill="#666">
    <path d="M6.5 7.5h-3C1.57 7.5 0 5.93 0 4S1.57.5 3.5.5h3C8.43.5 10 2.07 10 4S8.43 7.5 6.5 7.5zm-3-6A2.503 2.503 0 0 0 1 4c0 1.378 1.122 2.5 2.5 2.5h3C7.878 6.5 9 5.378 9 4S7.878 1.5 6.5 1.5h-3zM20.5 7.5h-3C15.57 7.5 14 5.93 14 4S15.57.5 17.5.5h3C22.43.5 24 2.07 24 4s-1.57 3.5-3.5 3.5zm-3-6A2.503 2.503 0 0 0 15 4c0 1.378 1.122 2.5 2.5 2.5h3C21.878 6.5 23 5.378 23 4s-1.122-2.5-2.5-2.5h-3z"/>
    <path d="M16.5 4.5h-9a.5.5 0 0 1 0-1h9a.5.5 0 0 1 0 1z"/>
  </g>
</svg>
