<svg xmlns="http://www.w3.org/2000/svg" viewBox="0 0 20 24">
  <g fill="#666">
    <path d="M18.5 0h-17C.673 0 0 .673 0 1.5v21c0 .827.673 1.5 1.5 1.5h17c.827 0 1.5-.673 1.5-1.5v-21c0-.827-.673-1.5-1.5-1.5zm.5 22.5a.5.5 0 0 1-.5.5h-17a.5.5 0 0 1-.5-.5V20h1.092c.207.58.757 1 1.408 1 .827 0 1.5-.673 1.5-1.5S4.327 18 3.5 18c-.65 0-1.2.42-1.408 1H1v-4h1.092c.207.58.757 1 1.408 1 .827 0 1.5-.673 1.5-1.5S4.327 13 3.5 13c-.65 0-1.2.42-1.408 1H1v-4h1.092c.207.58.757 1 1.408 1 .827 0 1.5-.673 1.5-1.5S4.327 8 3.5 8c-.65 0-1.2.42-1.408 1H1V5h1.092c.207.58.757 1 1.408 1C4.327 6 5 5.327 5 4.5S4.327 3 3.5 3c-.65 0-1.2.42-1.408 1H1V1.5a.5.5 0 0 1 .5-.5h17a.5.5 0 0 1 .5.5v21zm-16-3a.5.5 0 1 1 1.002.002A.5.5 0 0 1 3 19.5zm0-5a.5.5 0 1 1 1.002.002A.5.5 0 0 1 3 14.5zm0-5a.5.5 0 1 1 1.002.002A.5.5 0 0 1 3 9.5zm0-5a.5.5 0 1 1 1.002.002A.5.5 0 0 1 3 4.5z"/>
    <path d="M16.5 10h-9a.5.5 0 0 0 0 1h9a.5.5 0 0 0 0-1zm0-4h-9a.5.5 0 0 0 0 1h9a.5.5 0 0 0 0-1zm0 8h-9a.5.5 0 0 0 0 1h9a.5.5 0 0 0 0-1zm-2 4h-7a.5.5 0 0 0 0 1h7a.5.5 0 0 0 0-1z"/>
  </g>
</svg>
