<svg xmlns="http://www.w3.org/2000/svg" viewBox="0 0 24 24"><path fill="#666" d="M23.7 16.8l-.3-.3H23c-.2 0-.5 0-.6-.2v-.6c.3 0 .3-.2.3-.4V15c-1-1-2-1.6-3-1.8H19l-.2.4c0 .3-.3.5-.5.5s-.5 0-.5-.4c0 0 0-.3-.2-.4h-.4c-1 .2-2.2.8-3 1.7 0 0-.2.2 0 .3v.4c.3 0 .3.4.2.6s-.4.3-.6.2h-.4l-.3.3-.3 1.8.3 1.7.3.3h.4c.2 0 .5 0 .6.2v.6c-.3 0-.3.2-.3.4v.4c1 1 2 1.5 3 1.7h.5l.2-.5c0-.3.3-.4.5-.4s.5.2.5.5c0 0 0 .3.2.4h.3c1.3-.3 2.3-1 3-1.8.2 0 .3-.3.2-.4 0-.2 0-.3-.2-.4-.2 0-.2-.4 0-.6 0-.2.3-.3.5-.2h.4l.3-.3.3-1.7-.3-1.8zm-.8 2.8c-.7 0-1.2.2-1.5.7-.2.5-.2 1 0 1.5-.4.5-1 1-1.7 1-.2-.4-.7-.7-1.3-.7s-1 .4-1.3 1c-.7-.3-1.3-.7-1.8-1.2.3-.4.3-1 0-1.5-.2-.5-.7-.8-1.3-.7v-1-1c.7 0 1.2-.3 1.5-.8.2-.5.2-1 0-1.5.4-.5 1-1 1.7-1 .2.4.7.8 1.3.8s1-.3 1.3-.8c.7.2 1.3.6 1.8 1-.3.5-.3 1 0 1.6.2.5.7.7 1.3.7v2z"/><path fill="#666" d="M18.5 16C17 16 16 17.3 16 18.7s1 2.5 2.5 2.5 2.5-1 2.5-2.4-1-2.5-2.5-2.5zm0 4c-.8 0-1.5-.6-1.5-1.4s.7-1.5 1.5-1.5 1.5.7 1.5 1.6c0 .8-.7 1.5-1.5 1.5z"/><path fill="#666" d="M11.5 19L6 20 3 4l17-3 2.2 12c0 .3.3.5.6.4.2 0 .4-.3.4-.5L21 .4c0-.3-.3-.5-.6-.4L14 1 1.6 0s-.2 0-.3.2L1 .5l-1 18c0 .3.2.5.4.5l4.4.5.2 1c0 .4.3.6.5.6l6.2-1c.2 0 .4-.3.4-.5 0-.3-.2-.5-.5-.5zM1 18L2 1l8 .8L2.5 3l-.3.3v.3l2.6 15L1 18z"/></svg>