<svg viewBox="0 0 24 21" xmlns="http://www.w3.org/2000/svg">
  <g fill-rule="nonzero" fill="#828282">
    <path d="M12 20.208a.503.503 0 0 1-.375-.169l-11.5-13a.497.497 0 0 1-.072-.554l3-6A.5.5 0 0 1 3.5.208h17a.5.5 0 0 1 .447.276l3 6a.5.5 0 0 1-.073.555l-11.5 13a.496.496 0 0 1-.374.169zM1.098 6.63L12 18.954 22.902 6.63l-2.71-5.421H3.808L1.1 6.63z"/>
    <path d="M23.5 7.208H.5a.5.5 0 0 1 0-1h23a.5.5 0 0 1 0 1z"/>
    <path d="M16.5 7.208a.5.5 0 0 1-.4-.2L12 1.542 7.9 7.008a.524.524 0 0 1-.414.2.498.498 0 0 1-.402-.222l-4-6a.5.5 0 1 1 .832-.554l3.608 5.412L11.6.409c.188-.252.61-.252.8 0l4.076 5.435L20.084.432a.5.5 0 0 1 .832.554l-4 6a.502.502 0 0 1-.402.223l-.014-.001z"/>
    <path d="M12 20.208a.501.501 0 0 1-.473-.336l-4.5-13a.5.5 0 0 1 .945-.327L12 18.18l4.027-11.635a.5.5 0 1 1 .945.327l-4.5 13a.499.499 0 0 1-.472.336z"/>
  </g>
</svg>
