<svg viewBox="0 0 18 24" xmlns="http://www.w3.org/2000/svg">
  <g fill-rule="nonzero" fill="#666">
    <path d="M7.147 11.853a.5.5 0 0 0 .707 0L8 11.707V13.5a.5.5 0 0 0 1.001 0v-3a.5.5 0 0 0-.854-.354l-1 1a.5.5 0 0 0 0 .707zM10.854 11.853l.146-.146V13.5a.5.5 0 0 0 1.001 0v-3a.5.5 0 0 0-.854-.354l-1 1a.5.5 0 0 0 .707.707zM13.854 11.853l.146-.146V13.5a.5.5 0 0 0 1.001 0v-3a.5.5 0 0 0-.854-.354l-1 1a.5.5 0 0 0 .707.707zM6 10.5a.5.5 0 0 0-.5-.5h-2a.5.5 0 0 0-.5.5v3a.5.5 0 0 0 .5.5h2a.5.5 0 0 0 .5-.5v-3zM5 13H4v-2h1v2zM10.854 17.853l.146-.146V19.5a.5.5 0 0 0 1.001 0v-3a.5.5 0 0 0-.854-.354l-1 1a.5.5 0 0 0 .707.707zM13.854 17.853l.146-.146V19.5a.5.5 0 0 0 1.001 0v-3a.5.5 0 0 0-.854-.354l-1 1a.5.5 0 0 0 .707.707zM4.692 16.038a.5.5 0 0 0-.545.108l-1 1a.5.5 0 0 0 .707.707L4 17.707V19.5a.5.5 0 0 0 1.001 0v-3a.5.5 0 0 0-.309-.462zM8.5 16h-2a.5.5 0 0 0-.5.5v3a.5.5 0 0 0 .5.5h2a.5.5 0 0 0 .5-.5v-3a.5.5 0 0 0-.5-.5zM8 19H7v-2h1v2z"/>
    <path d="M17.5 0h-11a.513.513 0 0 0-.194.039c-.019.008-.033.023-.05.034-.038.022-.078.042-.11.073l-6 6c-.023.023-.036.054-.054.081-.018.027-.041.05-.053.08A.508.508 0 0 0 0 6.5v17a.5.5 0 0 0 .5.5h17a.5.5 0 0 0 .5-.5V.5a.5.5 0 0 0-.5-.5zM6 1.707V6H1.707L6 1.707zM17 23H1V7h5.5a.5.5 0 0 0 .5-.5V1h10v22z"/>
  </g>
</svg>
