<svg height="512pt" viewBox="0 0 512 512" width="512pt" xmlns="http://www.w3.org/2000/svg"><path d="m512 256c0 141.386719-114.613281 256-256 256s-256-114.613281-256-256 114.613281-256 256-256 256 114.613281 256 256zm0 0" fill="#025f80"/><path d="m440 344h-30c-5.523438 0-10-4.476562-10-10v-40c0-5.523438 4.476562-10 10-10h30c5.523438 0 10 4.476562 10 10v40c0 5.523438-4.476562 10-10 10zm0 0" fill="#f18bc3"/><path d="m440 324h-30c-5.523438 0-10-4.476562-10-10v-20c0-5.523438 4.476562-10 10-10h30c5.523438 0 10 4.476562 10 10v20c0 5.523438-4.476562 10-10 10zm0 0" fill="#f5a6d1"/><path d="m440 284h-30c-5.523438 0-10-4.476562-10-10v-40c0-5.523438 4.476562-10 10-10h30c5.523438 0 10 4.476562 10 10v40c0 5.523438-4.476562 10-10 10zm0 0" fill="#7ecd00"/><path d="m440 264h-30c-5.523438 0-10-4.476562-10-10v-20c0-5.523438 4.476562-10 10-10h30c5.523438 0 10 4.476562 10 10v20c0 5.523438-4.476562 10-10 10zm0 0" fill="#a1e52e"/><path d="m440 224h-30c-5.523438 0-10-4.476562-10-10v-40c0-5.523438 4.476562-10 10-10h30c5.523438 0 10 4.476562 10 10v40c0 5.523438-4.476562 10-10 10zm0 0" fill="#fdf061"/><path d="m440 204h-30c-5.523438 0-10-4.476562-10-10v-20c0-5.523438 4.476562-10 10-10h30c5.523438 0 10 4.476562 10 10v20c0 5.523438-4.476562 10-10 10zm0 0" fill="#fdf385"/><path d="m440 164h-30c-5.523438 0-10-4.476562-10-10v-40c0-5.523438 4.476562-10 10-10h30c5.523438 0 10 4.476562 10 10v40c0 5.523438-4.476562 10-10 10zm0 0" fill="#5de0c3"/><path d="m440 144h-30c-5.523438 0-10-4.476562-10-10v-20c0-5.523438 4.476562-10 10-10h30c5.523438 0 10 4.476562 10 10v20c0 5.523438-4.476562 10-10 10zm0 0" fill="#89e9d9"/><path d="m180 470h-30c-16.570312 0-30-13.429688-30-30v-320c0-16.570312 13.429688-30 30-30h30c5.523438 0 10 4.476562 10 10v360c0 5.523438-4.476562 10-10 10zm0 0" fill="#fc5426"/><path d="m424 100v349.160156c-8.664062 7.542969-17.851562 14.5-27.480469 20.839844h-236.519531c-5.523438 0-10-4.476562-10-10v-360c0-5.523438 4.476562-10 10-10h254c5.523438 0 10 4.476562 10 10zm0 0" fill="#fc6930"/><path d="m390 470h-20v-380h20zm0 0" fill="#d63d24"/><path d="m330 340v110h-107.507812c-1.277344 0-2.230469-1.183594-1.953126-2.433594l16.207032-72.921875c2.164062-9.734375 3.253906-19.675781 3.253906-29.644531 0-2.761719 2.238281-5 5-5zm0 0" fill="#fc5426"/><path d="m345 450h-100c-2.761719 0-5-2.238281-5-5v-100c0-2.761719 2.238281-5 5-5h100c2.761719 0 5 2.238281 5 5v100c0 2.761719-2.238281 5-5 5zm0 0" fill="#fdf061"/><path d="m345 450h-84.285156c-2.761719 0-5-2.238281-5-5v-100c0-2.761719 2.238281-5 5-5h84.285156c2.761719 0 5 2.238281 5 5v100c0 2.761719-2.238281 5-5 5zm0 0" fill="#fdf385"/><path d="m340 357v11c0 1.105469-.894531 2-2 2h-60.167969c-1.105469 0-2-.894531-2-2v-11c0-1.105469.894531-2 2-2h60.167969c1.105469 0 2 .894531 2 2zm-2 23h-36c-1.105469 0-2 .894531-2 2v11c0 1.105469.894531 2 2 2h36c1.105469 0 2-.894531 2-2v-11c0-1.105469-.894531-2-2-2zm0 0" fill="#e8ce00"/><path d="m190.363281 166.914062c-14.121093 12.550782-21.972656 30.710938-21.972656 49.605469v1.285157h-60.097656v-1.519532c0-19.054687-8.320313-37.03125-22.460938-49.808594-15.9375-14.402343-25.925781-35.265624-25.832031-58.460937.175781-43.195313 35.148438-78.015625 78.34375-78.015625 43.265625 0 78.339844 35.074219 78.339844 78.339844 0 23.300781-10.171875 44.222656-26.320313 58.574218zm0 0" fill="#fded32"/><path d="m168.390625 216.519531v1.285157h-39.707031v-1.519532c0-19.054687-8.320313-37.03125-22.460938-49.808594-15.9375-14.402343-25.925781-35.265624-25.832031-58.460937.160156-39.734375 29.769531-72.382813 68.136719-77.355469 38.453125 4.992188 68.15625 37.867188 68.15625 77.683594 0 23.296875-10.171875 44.222656-26.320313 58.570312-14.121093 12.550782-21.972656 30.710938-21.972656 49.605469zm0 0" fill="#fdf385"/><path d="m156.40625 48.78125c2.910156-3.824219 21.441406 2.140625 32.910156 15.023438 9.824219 11.039062 14.398438 27.082031 10.734375 29.691406-4.515625 3.210937-21.492187-13.945313-25.042969-17.527344-2.136718-2.160156-22.210937-22.445312-18.601562-27.1875zm0 0" fill="#fdf7bd"/><path d="m158.140625 101.71875h-39.597656c-12.132813 0-22 9.871094-22 22 0 9.707031 7.894531 17.601562 17.597656 17.601562 2.425781 0 4.402344 1.972657 4.402344 4.398438v57.203125c0 9.703125 7.894531 17.597656 17.597656 17.597656h4.402344c9.703125 0 17.597656-7.894531 17.597656-17.597656v-57.203125c0-2.425781 1.976563-4.398438 4.402344-4.398438 9.703125 0 17.597656-7.894531 17.597656-17.601562 0-12.128906-9.867187-22-22-22zm4.402344 26.402344c-9.707031 0-17.601563 7.894531-17.601563 17.597656v57.203125c0 2.425781-1.972656 4.398437-4.398437 4.398437h-4.402344c-2.425781 0-4.398437-1.972656-4.398437-4.398437v-57.203125c0-9.703125-7.894532-17.597656-17.601563-17.597656-2.425781 0-4.398437-1.976563-4.398437-4.402344 0-4.851562 3.949218-8.796875 8.800781-8.796875h39.597656c4.851563 0 8.800781 3.945313 8.800781 8.796875 0 2.425781-1.972656 4.402344-4.398437 4.402344zm0 0" fill="#e8ce00"/><path d="m178.585938 212.4375c0 4.804688-3.160157 8.871094-7.511719 10.242188v.492187c0 14.816406-12.011719 26.828125-26.832031 26.828125h-11.804688c-14.816406 0-26.828125-12.011719-26.828125-26.828125v-.492187c-4.351563-1.371094-7.511719-5.4375-7.511719-10.242188 0-5.925781 4.804688-10.730469 10.730469-10.730469h59.027344c5.925781 0 10.730469 4.804688 10.730469 10.730469zm0 0" fill="#88b9d3"/><path d="m178.585938 212.4375c0 4.804688-3.160157 8.871094-7.511719 10.242188v.492187c0 12.882813-9.085938 23.640625-21.195313 26.230469-8.070312-1.722656-14.796875-7.078125-18.386718-14.269532-.894532-1.796874.378906-3.914062 2.386718-3.914062h24.046875c2.265625 0 4.09375-1.867188 4.023438-4.148438-.066407-2.203124-1.988281-3.898437-4.191407-3.898437h-33.367187c-5.925781 0-10.730469-4.804687-10.730469-10.734375 0-5.925781 4.804688-10.730469 10.730469-10.730469h43.464844c5.925781 0 10.730469 4.804688 10.730469 10.730469zm0 0" fill="#b3d1e1"/></svg>