<svg xmlns="http://www.w3.org/2000/svg" width="512pt" height="512pt" viewBox="0 0 512 512"><path fill="#017296" d="m460 112.863281v286.21875c0 7.6875-2.632812 15.171875-7.566406 21.066407-46.957032 56.136718-117.519532 91.851562-196.433594 91.851562-141.289062 0-255.84375-114.457031-256-255.707031-.15625-139.796875 112.882812-254.492188 252.667969-256.2734378 80.277343-1.0195312 152.183593 34.9218748 199.800781 91.8749998 4.910156 5.871094 7.53125 13.316407 7.53125 20.96875zm0 0"/><path fill="#88b9d3" d="m90 381h-30c-5.523438 0-10-4.476562-10-10v-270c0-5.523438 4.476562-10 10-10h30c5.523438 0 10 4.476562 10 10v270c0 5.523438-4.476562 10-10 10zm0 0"/><path fill="#b3d1e1" d="m82.09375 91h369.621094c37.605468 44.558594 60.285156 102.128906 60.285156 165 0 45.398438-11.832031 88.027344-32.5625 125h-397.34375c-5.523438 0-10-4.476562-10-10v-270c0-5.523438 4.476562-10 10-10zm0 0"/><path fill="#e659a9" d="m83.722656 180v-54c0-2.761719 2.238282-5 5-5h384.808594c9.445312 15.1875 17.34375 31.433594 23.480469 48.519531 1.832031 5.105469-1.980469 10.480469-7.402344 10.480469zm0 0"/><path fill="#c43286" d="m459.5 145.5c0 4.140625-3.359375 7.5-7.5 7.5s-7.5-3.359375-7.5-7.5 3.359375-7.5 7.5-7.5 7.5 3.359375 7.5 7.5zm14.984375-7.5c-4.140625 0-7.5 3.359375-7.5 7.5s3.359375 7.5 7.5 7.5 7.5-3.359375 7.5-7.5-3.359375-7.5-7.5-7.5zm-47.484375 0h-255c-4.140625 0-7.5 3.359375-7.5 7.5s3.359375 7.5 7.5 7.5h255c4.140625 0 7.5-3.359375 7.5-7.5s-3.359375-7.5-7.5-7.5zm0 0"/><path fill="#ecf8d9" d="m497.175781 170c9.589844 26.878906 14.824219 55.828125 14.824219 86 0 45.398438-11.832031 88.027344-32.5625 125h-390.714844c-2.761718 0-5-2.238281-5-5v-206zm0 0"/><path fill="#b3d1e1" d="m484.761719 371c-9.058594 17.984375-20.179688 34.753906-33.046875 50h-411.714844c-16.570312 0-30-13.429688-30-30v-10c0-5.523438 4.476562-10 10-10zm0 0"/><path fill="#6caac9" d="m330 391h-70c-11.046875 0-20-8.953125-20-20h110c0 11.046875-8.953125 20-20 20zm0 0"/><path fill="#88b9d3" d="m466.984375 401c-4.765625 6.921875-9.863281 13.59375-15.269531 20h-411.714844c-16.570312 0-30-13.429688-30-30v-10c0-1.277344.25-2.496094.6875-3.621094 2.925781 13.503906 14.933594 23.621094 29.3125 23.621094zm0 0"/><path fill="#b8eb6a" d="m473.5 302.429688v11c0 1.105468-.894531 2-2 2h-86c-1.105469 0-2-.898438-2-2v-11c0-1.105469.894531-2 2-2h86c1.105469 0 2 .894531 2 2zm-2-26.570313h-86c-1.105469 0-2 .894531-2 2v11c0 1.101563.894531 2 2 2h86c1.105469 0 2-.894531 2-2v-11c0-1.105469-.894531-2-2-2zm-19 49.140625h-48c-1.105469 0-2 .894531-2 2v11c0 1.105469.894531 2 2 2h48c1.105469 0 2-.894531 2-2v-11c0-1.105469-.894531-2-2-2zm-92.75-24.570312h-86c-1.105469 0-2 .894531-2 2v11c0 1.101562.894531 2 2 2h86c1.105469 0 2-.894532 2-2v-11c0-1.105469-.894531-2-2-2zm0-24.570313h-86c-1.105469 0-2 .894531-2 2v11c0 1.101563.894531 2 2 2h86c1.105469 0 2-.894531 2-2v-11c0-1.105469-.894531-2-2-2zm-19 49.140625h-48c-1.105469 0-2 .894531-2 2v11c0 1.105469.894531 2 2 2h48c1.105469 0 2-.894531 2-2v-11c0-1.105469-.894531-2-2-2zm-92.75-24.570312h-86c-1.105469 0-2 .894531-2 2v11c0 1.101562.894531 2 2 2h86c1.105469 0 2-.894532 2-2v-11c0-1.105469-.894531-2-2-2zm0-24.570313h-86c-1.105469 0-2 .894531-2 2v11c0 1.101563.894531 2 2 2h86c1.105469 0 2-.894531 2-2v-11c0-1.105469-.894531-2-2-2zm-19 49.140625h-48c-1.105469 0-2 .894531-2 2v11c0 1.105469.894531 2 2 2h48c1.105469 0 2-.894531 2-2v-11c0-1.105469-.894531-2-2-2zm0 0"/><path fill="#cff09a" d="m346.75 230c0 16.570312-13.429688 30-30 30s-30-13.429688-30-30 13.429688-30 30-30 30 13.429688 30 30zm-141.75-30c-16.570312 0-30 13.429688-30 30s13.429688 30 30 30 30-13.429688 30-30-13.429688-30-30-30zm223.5 0c-16.570312 0-30 13.429688-30 30s13.429688 30 30 30 30-13.429688 30-30-13.429688-30-30-30zm-321 140c-4.140625 0-7.5 3.359375-7.5 7.5s3.359375 7.5 7.5 7.5 7.5-3.359375 7.5-7.5-3.359375-7.5-7.5-7.5zm22.484375 0c-4.140625 0-7.5 3.359375-7.5 7.5s3.359375 7.5 7.5 7.5 7.5-3.359375 7.5-7.5-3.359375-7.5-7.5-7.5zm0 0"/><path fill="#fded32" d="m170.09375 195.582031c-16.050781 14.265625-24.972656 34.898438-24.972656 56.371094v1.460937h-68.292969v-1.722656c0-21.652344-9.453125-42.085937-25.519531-56.601562-18.113282-16.367188-29.464844-40.074219-29.355469-66.433594.199219-49.085938 39.9375-88.65625 89.023437-88.65625 49.167969 0 89.023438 39.859375 89.023438 89.023438 0 26.480468-11.558594 50.253906-29.90625 66.558593zm0 0"/><path fill="#fdf385" d="m145.121094 251.953125v1.460937h-45.121094v-1.722656c0-21.652344-9.457031-42.085937-25.523438-56.601562-18.109374-16.367188-29.460937-40.074219-29.351562-66.433594.179688-45.15625 33.828125-82.257812 77.425781-87.90625 43.699219 5.671875 77.449219 43.03125 77.449219 88.273438 0 26.480468-11.558594 50.253906-29.90625 66.558593-16.050781 14.265625-24.972656 34.898438-24.972656 56.371094zm0 0"/><path fill="#fdf7bd" d="m131.503906 61.339844c3.308594-4.34375 24.367188 2.433594 37.398438 17.074218 11.164062 12.542969 16.359375 30.773438 12.195312 33.738282-5.128906 3.652344-24.421875-15.84375-28.457031-19.917969-2.425781-2.453125-25.242187-25.503906-21.136719-30.894531zm0 0"/><path fill="#e8ce00" d="m133.476562 121.5h-45c-13.785156 0-25 11.214844-25 25 0 11.027344 8.972657 20 20 20 2.757813 0 5 2.242188 5 5v65c0 11.027344 8.972657 20 20 20h5c11.027344 0 20-8.972656 20-20v-65c0-2.757812 2.242188-5 5-5 11.027344 0 20-8.972656 20-20 0-13.785156-11.214843-25-25-25zm5 30c-11.027343 0-20 8.972656-20 20v65c0 2.757812-2.242187 5-5 5h-5c-2.757812 0-5-2.242188-5-5v-65c0-11.027344-8.972656-20-20-20-2.757812 0-5-2.242188-5-5 0-5.515625 4.484376-10 10-10h45c5.515626 0 10 4.484375 10 10 0 2.757812-2.246093 5-5 5zm0 0"/><path fill="#6caac9" d="m156.707031 247.316406c0 5.460938-3.589843 10.082032-8.535156 11.636719v.558594c0 16.839843-13.652344 30.488281-30.488281 30.488281h-13.417969c-16.835937 0-30.488281-13.648438-30.488281-30.488281v-.558594c-4.945313-1.554687-8.535156-6.175781-8.535156-11.636719 0-6.734375 5.460937-12.195312 12.195312-12.195312h67.074219c6.734375 0 12.195312 5.460937 12.195312 12.195312zm0 0"/><path fill="#88b9d3" d="m156.707031 247.316406c0 5.460938-3.589843 10.082032-8.535156 11.636719v.558594c0 14.640625-10.324219 26.867187-24.085937 29.808593-9.171876-1.960937-16.8125-8.042968-20.894532-16.214843-1.019531-2.042969.429688-4.449219 2.714844-4.449219h27.324219c2.574219 0 4.652343-2.121094 4.574219-4.710938-.078126-2.503906-2.261719-4.433593-4.765626-4.433593h-37.917968c-6.734375 0-12.195313-5.460938-12.195313-12.195313s5.460938-12.195312 12.195313-12.195312h49.390625c6.734375 0 12.195312 5.460937 12.195312 12.195312zm0 0"/></svg>