<svg xmlns="http://www.w3.org/2000/svg" width="512pt" height="512pt" viewBox="0 0 512 512"><path fill="#fdbf43" d="m512 255.710938c.152344 139.929687-113.101562 254.683593-253.023438 256.273437-78.496093.890625-148.96875-33.558594-196.507812-88.421875-4.601562-5.308594-.871094-13.5625 6.15625-13.5625h291.375v-377.570312c0-4.894532 5.148438-8.097657 9.53125-5.925782 84.34375 41.804688 142.359375 128.71875 142.46875 229.207032zm0 0"/><path fill="#fda800" d="m74.683594 400h275.316406v60h-248.65625c-13.78125-10.464844-26.472656-22.289062-37.867188-35.28125-8.445312-9.625-1.597656-24.71875 11.207032-24.71875zm0 0"/><path fill="#d3f1f5" d="m371.101562 425h-307.375c-39.660156-45.089844-63.726562-104.230469-63.726562-169 0-141.386719 114.613281-256 256-256 41.398438 0 80.496094 9.839844 115.101562 27.289062zm0 0"/><path fill="#84deea" d="m215 270c0 4.140625-3.359375 7.5-7.5 7.5s-7.5-3.359375-7.5-7.5 3.359375-7.5 7.5-7.5 7.5 3.359375 7.5 7.5zm17.5-7.5c-4.140625 0-7.5 3.359375-7.5 7.5s3.359375 7.5 7.5 7.5 7.5-3.359375 7.5-7.5-3.359375-7.5-7.5-7.5zm25 0c-4.140625 0-7.5 3.359375-7.5 7.5s3.359375 7.5 7.5 7.5 7.5-3.359375 7.5-7.5-3.359375-7.5-7.5-7.5zm2.5-69.5v-11c0-1.105469-.894531-2-2-2h-186c-1.105469 0-2 .894531-2 2v11c0 1.105469.894531 2 2 2h186c1.105469 0 2-.894531 2-2zm-41.582031 17h-106.835938c-1.101562 0-2 .894531-2 2v11c0 1.105469.898438 2 2 2h106.832031c1.105469 0 2-.894531 2-2v-11c.003907-1.105469-.894531-2-1.996093-2zm-122.667969-45h138.5c1.105469 0 2-.894531 2-2v-11c0-1.105469-.894531-2-2-2h-138.5c-1.105469 0-2 .894531-2 2v11c0 1.105469.894531 2 2 2zm0 0"/><path fill="#024c67" d="m373.5 99.671875v12.828125c0 4.140625-3.359375 7.5-7.5 7.5s-7.5-3.359375-7.5-7.5v-12.828125c-4.3125-1.113281-7.5-5.015625-7.5-9.671875s3.1875-8.558594 7.5-9.671875v-12.828125c0-4.140625 3.359375-7.5 7.5-7.5s7.5 3.359375 7.5 7.5v12.828125c4.3125 1.113281 7.5 5.015625 7.5 9.671875s-3.1875 8.558594-7.5 9.671875zm0 0"/><path fill="#025f80" d="m386.457031 96.671875 16.183594 24.277344c2.191406 3.285156 3.359375 7.144531 3.359375 11.09375v335.957031h-80v-335.957031c0-3.949219 1.167969-7.808594 3.359375-11.09375l16.183594-24.277344c2.777343-4.167969 7.457031-6.671875 12.464843-6.671875h15.980469c5.011719 0 9.691407 2.503906 12.46875 6.671875zm0 0"/><path fill="#017296" d="m358.265625 130c-4.605469 0-7.496094-5.125-4.960937-8.972656.015624-.023438.035156-.050782.054687-.082032l20.632813-30.945312c5.007812 0 9.6875 2.503906 12.464843 6.671875l16.183594 24.277344c1.8125 2.714843 2.910156 5.824219 3.242187 9.050781zm47.691406.90625c-.015625-.300781-.042969-.601562-.074219-.902344.03125.300782.054688.601563.074219.902344zm.042969 1.113281v.023438 17.957031h-50.144531c-3.234375 0-5.855469 2.621094-5.855469 5.855469v8.289062c0 3.234375 2.621094 5.855469 5.855469 5.855469h23.800781c5.328125 0 9.976562 4.019531 10.320312 9.332031.378907 5.828125-4.234374 10.667969-9.976562 10.667969h-24.144531c-3.234375 0-5.855469 2.621094-5.855469 5.855469v272.144531h56v-335.957031c0-.007813 0-.015625 0-.023438zm0 0"/><path fill="#024c67" d="m386 498h-40c-11.046875 0-20-8.953125-20-20v-20c0-11.046875 8.953125-20 20-20h40c11.046875 0 20 8.953125 20 20v20c0 11.046875-8.953125 20-20 20zm0 0"/><path fill="#e659a9" d="m406 280v188h-80v-188zm0 0"/><path fill="#ec74b6" d="m406 280v188h-56v-188zm0 0"/><path fill="#025f80" d="m420 322v148c0 5.523438-4.476562 10-10 10h-30c-5.523438 0-10-4.476562-10-10v-148c0-5.523438 4.476562-10 10-10h30c5.523438 0 10 4.476562 10 10zm0 0"/><path fill="#017296" d="m420 322v148c0 5.523438-4.476562 10-10 10h-14.332031c-5.523438 0-10-4.476562-10-10v-148c0-5.523438 4.476562-10 10-10h14.332031c5.523438 0 10 4.476562 10 10zm0 0"/></svg>