<svg height="512pt" viewBox="0 0 512 512" width="512pt" xmlns="http://www.w3.org/2000/svg"><path d="m512 256c0 141.386719-114.613281 256-256 256s-256-114.613281-256-256 114.613281-256 256-256 256 114.613281 256 256zm0 0" fill="#fdd78d"/><path d="m387.875 345.0625v130.390625c-38.519531 23.195313-83.636719 36.546875-131.875 36.546875-27.59375 0-54.160156-4.382812-79.0625-12.460938v-164.476562h80.46875v-10.0625c0-13.808594 11.191406-25 25-25s25 11.191406 25 25v10.0625h70.46875c5.523438 0 10 4.476562 10 10zm0 0" fill="#7ecd00"/><path d="m240 435.5v11c0 22.089844-17.910156 40-40 40v19.335938c-7.828125-1.75-15.523438-3.851563-23.0625-6.300782v-13.035156h-.273438v-91h.273438v-60.4375h23.0625v60.4375c22.089844 0 40 17.910156 40 40zm0 0" fill="#6bae01"/><path d="m364 447v11c0 1.105469-.894531 2-2 2h-100c-1.105469 0-2-.894531-2-2v-11c0-1.105469.894531-2 2-2h100c1.105469 0 2 .894531 2 2zm-2 28h-70c-1.105469 0-2 .894531-2 2v11c0 1.105469.894531 2 2 2h67.949219c1.351562-.601562 2.695312-1.21875 4.035156-1.84375.003906-.050781.015625-.101562.015625-.15625v-11c0-1.105469-.894531-2-2-2zm0-94.5h-22.5v-22.5c0-1.105469-.894531-2-2-2h-11c-1.105469 0-2 .894531-2 2v22.5h-22.5c-1.105469 0-2 .894531-2 2v11c0 1.105469.894531 2 2 2h22.5v22.5c0 1.105469.894531 2 2 2h11c1.105469 0 2-.894531 2-2v-22.5h22.5c1.105469 0 2-.894531 2-2v-11c0-1.105469-.894531-2-2-2zm0 0" fill="#6bae01"/><path d="m220 440.53125c0 13.808594-11.191406 25-25 25h-18.0625v34.003906c-77.785156-25.234375-139.242188-86.6875-164.476562-164.472656h164.476562v80.46875h18.0625c13.808594 0 25 11.191406 25 25zm0 0" fill="#fded32"/><path d="m105 367.5c0 4.140625-3.359375 7.5-7.5 7.5s-7.5-3.359375-7.5-7.5 3.359375-7.5 7.5-7.5 7.5 3.359375 7.5 7.5zm17.5-7.5c-4.140625 0-7.5 3.359375-7.5 7.5s3.359375 7.5 7.5 7.5 7.5-3.359375 7.5-7.5-3.359375-7.5-7.5-7.5zm25 0c-4.140625 0-7.5 3.359375-7.5 7.5s3.359375 7.5 7.5 7.5 7.5-3.359375 7.5-7.5-3.359375-7.5-7.5-7.5zm0 0" fill="#e8ce00"/><path d="m176.9375 230v105.0625h-164.476562c-8.078126-24.902344-12.460938-51.46875-12.460938-79.0625 0-48.238281 13.351562-93.355469 36.546875-131.875h130.390625c5.523438 0 10 4.476562 10 10v45.875h-11.9375c-13.808594 0-25 11.191406-25 25s11.191406 25 25 25zm0 0" fill="#df3d9b"/><path d="m62 297v11c0 1.105469-.894531 2-2 2h-54.273438c-1.066406-4.949219-2.003906-9.949219-2.773437-15h57.046875c1.105469 0 2 .894531 2 2zm30-32h-91.824219c.171875 5.039062.492188 10.039062.953125 15h90.871094c1.105469 0 2-.894531 2-2v-11c0-1.105469-.894531-2-2-2zm0-30h-91.136719c-.402343 4.960938-.671875 9.960938-.7890622 15h91.9257812c1.105469 0 2-.894531 2-2v-11c0-1.105469-.894531-2-2-2zm10.5-90c-4.140625 0-7.5 3.359375-7.5 7.5s3.359375 7.5 7.5 7.5 7.5-3.359375 7.5-7.5-3.359375-7.5-7.5-7.5zm25 0c-4.140625 0-7.5 3.359375-7.5 7.5s3.359375 7.5 7.5 7.5 7.5-3.359375 7.5-7.5-3.359375-7.5-7.5-7.5zm25 0c-4.140625 0-7.5 3.359375-7.5 7.5s3.359375 7.5 7.5 7.5 7.5-3.359375 7.5-7.5-3.359375-7.5-7.5-7.5zm0 0" fill="#a72975"/><path d="m480.9375 39.0625v190.9375c0 5.523438-4.476562 10-10 10h-70.46875v-15c0-13.808594-11.191406-25-25-25s-25 11.191406-25 25v15h-70.46875c-5.523438 0-10-4.476562-10-10v-100h-15c-13.808594 0-25-11.191406-25-25s11.191406-25 25-25h15v-40.9375c0-5.523438 4.476562-10 10-10h190.9375c5.523438 0 10 4.476562 10 10zm0 0" fill="#fd7d43"/><g fill="#fc5426"><path d="m310 78v-11c0-1.105469.894531-2 2-2h130c1.105469 0 2 .894531 2 2v11c0 1.105469-.894531 2-2 2h-130c-1.105469 0-2-.894531-2-2zm134 30v-11c0-1.105469-.894531-2-2-2h-130c-1.105469 0-2 .894531-2 2v11c0 1.105469.894531 2 2 2h130c1.105469 0 2-.894531 2-2zm0 30v-11c0-1.105469-.894531-2-2-2h-100c-1.105469 0-2 .894531-2 2v11c0 1.105469.894531 2 2 2h100c1.105469 0 2-.894531 2-2zm-56.5 22c-4.140625 0-7.5 3.359375-7.5 7.5s3.359375 7.5 7.5 7.5 7.5-3.359375 7.5-7.5-3.359375-7.5-7.5-7.5zm25 0c-4.140625 0-7.5 3.359375-7.5 7.5s3.359375 7.5 7.5 7.5 7.5-3.359375 7.5-7.5-3.359375-7.5-7.5-7.5zm25 0c-4.140625 0-7.5 3.359375-7.5 7.5s3.359375 7.5 7.5 7.5 7.5-3.359375 7.5-7.5-3.359375-7.5-7.5-7.5zm0 0"/><path d="m290 240h-10c-5.523438 0-10-4.476562-10-10v-100h-15c-13.808594 0-25-11.191406-25-25s11.191406-25 25-25h15v-40.9375c0-5.523438 4.476562-10 10-10h10zm0 0"/></g></svg>