<svg height="512pt" viewBox="0 0 512 512" width="512pt" xmlns="http://www.w3.org/2000/svg"><path d="m512 256c0 141.386719-114.613281 256-256 256s-256-114.613281-256-256 114.613281-256 256-256 256 114.613281 256 256zm0 0" fill="#025f80"/><path d="m463.957031 253.917969-18.707031 24.726562c-1.601562 2.113281-4.78125 2.113281-6.382812 0l-18.707032-24.726562c-1.992187-2.636719-.113281-6.414063 3.191406-6.414063h9.976563c-1.953125-42.71875-19.210937-84.867187-51.808594-117.503906-70.511719-70.59375-184.246093-69.667969-253.652343 2.015625-67.390626 69.605469-66.707032 180.667969 2.058593 249.429687 67.046875 67.046876 174.304688 69.375 244.140625 6.980469.890625-.796875 2.316406-2.148437 3.824219-3.601562 3.558594-3.429688 9.214844-3.375 12.710937.121093 3.589844 3.589844 3.53125 9.425782-.121093 12.953126-1.59375 1.539062-3.109375 2.972656-4.066407 3.832031-76.953124 69.007812-195.347656 66.523437-269.320312-7.449219-76.742188-76.742188-76.820312-200.179688-.171875-277.015625 76.527344-76.714844 200.757813-76.773437 277.359375-.171875 36.1875 36.191406 55.242188 83.011719 57.210938 130.410156h9.277343c3.300781 0 5.179688 3.777344 3.1875 6.414063zm-33.261719 41.980469c-3.414062 3.417968-3.414062 8.957031 0 12.371093 3.417969 3.417969 8.957032 3.417969 12.371094 0 3.417969-3.414062 3.417969-8.953125 0-12.371093-3.414062-3.414063-8.953125-3.414063-12.371094 0zm-7.449218 28.34375c-3.628906 3.191406-3.988282 8.714843-.796875 12.34375 3.1875 3.628906 8.714843 3.988281 12.34375.796874 3.628906-3.1875 3.984375-8.714843.796875-12.34375-3.191406-3.628906-8.714844-3.984374-12.34375-.796874zm-10.925782 21.878906c-3.628906 3.1875-3.984374 8.714844-.796874 12.347656 3.191406 3.628906 8.71875 3.984375 12.34375.796875 3.628906-3.191406 3.988281-8.71875.796874-12.347656-3.1875-3.628907-8.714843-3.984375-12.34375-.796875zm-14.503906 21.164062c-3.628906 3.1875-3.988281 8.714844-.796875 12.34375 3.1875 3.628906 8.714844 3.984375 12.34375.796875 3.628907-3.191406 3.984375-8.714843.796875-12.347656-3.1875-3.625-8.714844-3.984375-12.34375-.792969zm0 0" fill="#3691bb"/><path d="m195.5 234.722656v175.277344c0 5.523438-4.476562 10-10 10h-60c-5.523438 0-10-4.476562-10-10v-95.277344c0-44.179687 35.816406-80 80-80zm0 0" fill="#5de0c3"/><path d="m396.5 314.722656v95.277344c0 5.523438-4.476562 10-10 10h-60c-5.523438 0-10-4.476562-10-10v-175.277344c44.183594 0 80 35.820313 80 80zm-256.5-14.722656v120h45.5c5.523438 0 10-4.476562 10-10v-175.277344c-9.941406 0-19.449219 1.828125-28.230469 5.140625-16.707031 14.664063-27.269531 36.160157-27.269531 60.136719zm0 0" fill="#89e9d9"/><path d="m130 360h65.5v20h-65.5zm0-50h65.5v-20h-65.5zm262.585938-20h-76.085938v20h79.851562c-.40625-6.941406-1.699218-13.644531-3.765624-20zm-76.085938 70v20h80v-20zm0 0" fill="#5de0c3"/><path d="m207 418.351562v-132.585937c0-3.183594 2.582031-5.765625 5.765625-5.765625h86.46875c3.1875 0 5.765625 2.582031 5.765625 5.765625v132.585937c0 31.1875-20.636719 69.078126-49 77.714844-28.363281-8.636718-49-46.527344-49-77.714844zm0 0" fill="#fdf385"/><path d="m220.605469 409.933594v-95.769532c0-2.300781 1.867187-4.164062 4.164062-4.164062h62.460938c2.296875 0 4.164062 1.863281 4.164062 4.164062v95.769532c0 22.527344-14.910156 49.894531-35.394531 56.132812-20.484375-6.238281-35.394531-33.605468-35.394531-56.132812zm0 0" fill="#fde803"/><path d="m220.605469 379.933594v-95.769532c0-2.300781 1.867187-4.164062 4.164062-4.164062h62.460938c2.296875 0 4.164062 1.863281 4.164062 4.164062v95.769532c0 22.527344-14.910156 49.894531-35.394531 56.132812-20.484375-6.238281-35.394531-33.605468-35.394531-56.132812zm0 0" fill="#e8ce00"/><path d="m311 410h-110c-5.523438 0-10-4.476562-10-10v-20c0-5.523438 4.476562-10 10-10h110c5.523438 0 10 4.476562 10 10v20c0 5.523438-4.476562 10-10 10zm0 0" fill="#ee4424"/><path d="m341 154.722656v230c0 5.523438-4.476562 10-10 10h-150c-5.523438 0-10-4.476562-10-10v-230c0-54.097656 35.800781-119.828125 85-134.808594 49.199219 14.980469 85 80.710938 85 134.808594zm0 0" fill="#fc6930"/><path d="m341 154.722656v230c0 5.523438-4.476562 10-10 10h-131v-240c0-48.621094 28.925781-106.632812 70.5-128.753906 41.574219 22.121094 70.5 80.132812 70.5 128.753906zm0 0" fill="#fd7d43"/><path d="m321 174.914062c0 35.902344-29.101562 65-65 65s-65-29.097656-65-65c0-35.898437 29.101562-65 65-65s65 29.101563 65 65zm0 0" fill="#ee4424"/><path d="m301 174.914062c0 24.855469-20.148438 45-45 45s-45-20.144531-45-45c0-24.851562 20.148438-45 45-45s45 20.148438 45 45zm0 0" fill="#025f80"/><path d="m301 174.914062c0 19-11.78125 35.238282-28.429688 41.839844-16.648437-6.601562-28.425781-22.839844-28.425781-41.839844 0-18.996093 11.78125-35.234374 28.425781-41.835937 16.648438 6.601563 28.429688 22.839844 28.429688 41.835937zm0 0" fill="#0680ae"/><path d="m366.316406 94.101562-107.027344 107.027344c-1.820312 1.820313-4.777343 1.820313-6.597656 0l-46.683594-46.671875c-.910156-.910156-.910156-2.390625 0-3.300781l13.203126-13.203125c.910156-.910156 2.386718-.910156 3.300781 0l31.824219 31.824219c.910156.910156 2.386718.910156 3.296874 0l92.179688-92.179688c.914062-.910156 2.390625-.910156 3.300781 0l13.203125 13.203125c.910156.910157.910156 2.390625 0 3.300781zm0 0" fill="#fdf7bd"/></svg>