<svg height="512pt" viewBox="0 0 512 512" width="512pt" xmlns="http://www.w3.org/2000/svg"><path d="m512 256c0 141.386719-114.613281 256-256 256s-256-114.613281-256-256 114.613281-256 256-256 256 114.613281 256 256zm0 0" fill="#2a2f4f"/><g fill="#3d4159"><path d="m138.972656 384.519531c0 6.355469-5.140625 11.496094-11.492187 11.496094h-5.507813c-17.15625 0-31.0625 13.917969-31.0625 31.074219v5.496094c0 3.175781-1.285156 6.050781-3.367187 8.128906-1.492188 1.496094-3.394531 2.582031-5.527344 3.0625-4.878906-4.515625-9.589844-9.226563-14.09375-14.117188v-2.570312c0-15.433594-11.253906-28.242188-26.007813-30.65625-4.871093-7.417969-9.363281-15.097656-13.457031-23.03125.917969-.25 1.890625-.375 2.894531-.375h5.503907c17.160156 0 31.066406-13.90625 31.066406-31.066406v-5.503907c0-3.167969 1.285156-6.050781 3.363281-8.128906 2.082032-2.082031 4.953125-3.367187 8.128906-3.367187 6.355469 0 11.496094 5.152343 11.496094 11.496093v5.503907c0 17.160156 13.90625 31.066406 31.0625 31.066406h5.507813c3.175781 0 6.050781 1.285156 8.128906 3.363281 2.078125 2.082031 3.363281 4.964844 3.363281 8.128906zm0 0"/><path d="m480.65625 272.722656h-5.503906c-17.15625 0-31.066406-13.910156-31.066406-31.070312v-5.503906c0-6.347657-5.148438-11.492188-11.496094-11.492188s-11.492188 5.144531-11.492188 11.492188v5.503906c0 17.160156-13.910156 31.070312-31.070312 31.070312h-5.5c-6.347656 0-11.496094 5.144532-11.496094 11.492188s5.148438 11.496094 11.496094 11.496094h5.5c17.160156 0 31.070312 13.910156 31.070312 31.066406v5.503906c0 6.347656 5.144532 11.492188 11.492188 11.492188s11.496094-5.144532 11.496094-11.492188v-5.503906c0-17.160156 13.910156-31.066406 31.066406-31.066406h5.503906c6.347656 0 11.492188-5.148438 11.492188-11.496094s-5.144532-11.492188-11.492188-11.492188zm0 0"/><path d="m126.4375 87.769531v.011719c0 6.34375-5.152344 11.492188-11.496094 11.492188h-5.507812c-17.15625 0-31.0625 13.910156-31.0625 31.066406v5.507812c0 3.175782-1.285156 6.039063-3.363282 8.128906-2.089843 2.078126-4.953124 3.363282-8.132812 3.363282-6.351562 0-11.492188-5.152344-11.492188-11.492188v-5.507812c0-8.410156-3.34375-16.039063-8.789062-21.628906 11.277344-16.007813 24.347656-30.667969 38.925781-43.675782 5.683594 6.875 14.292969 11.25 23.914063 11.25h5.507812c6.34375 0 11.496094 5.144532 11.496094 11.484375zm0 0"/></g><path d="m422.320312 256c0 62.066406-34 116.191406-84.398437 144.757812v.011719c-24.175781 13.710938-52.140625 21.546875-81.917969 21.546875-21.722656 0-42.476562-4.171875-61.492187-11.746094h-.023438c-61.40625-24.449218-104.800781-84.4375-104.800781-154.570312 0-46.613281 19.171875-88.753906 50.070312-118.941406 29.980469-29.308594 71-47.375 116.246094-47.375 18.996094 0 37.25 3.1875 54.25 9.046875 65.210938 22.496093 112.066406 84.40625 112.066406 157.269531zm0 0" fill="#66baed"/><path d="m291.101562 418.59375c-11.316406 2.4375-23.0625 3.722656-35.097656 3.722656-21.722656 0-42.476562-4.171875-61.492187-11.746094h-.023438c-61.40625-24.449218-104.800781-84.4375-104.800781-154.570312 0-46.613281 19.171875-88.753906 50.070312-118.941406 29.980469-29.308594 71-47.375 116.246094-47.375 12.035156 0 23.769532 1.273437 35.078125 3.71875-31.191406 6.699218-59.132812 22.152344-81.128906 43.65625-30.894531 30.1875-50.070313 72.328125-50.070313 118.941406 0 70.132812 43.394532 130.121094 104.804688 154.570312h.019531c8.472657 3.375 17.292969 6.082032 26.394531 8.023438zm0 0" fill="#2ba1cf"/><path d="m422.320312 256c0 62.066406-34 116.191406-84.398437 144.757812-28.984375-59.035156-96.402344-6.78125-104.238281-80.433593-7.824219-73.667969 80.71875-47.804688 106.582031-73.667969 25.859375-25.859375 0-65.828125-21.945313-43.882812-21.941406 21.941406-54.855468 15.671874-47.019531-6.269532 7.835938-21.945312 45.453125-31.347656 18.390625-40.753906-27.074218-9.390625 0-36.464844 20.542969-57.007812l.019531-.011719c43.25 14.921875 78.421875 47.179687 97.195313 88.460937-20.164063 0-38.972657 34.386719-20.164063 53.195313 10.207032 10.210937 22.894532 13 35.023438 13.910156.011718.5625.011718 1.136719.011718 1.703125zm0 0" fill="#3fb777"/><path d="m194.511719 410.570312h-.023438c-61.40625-24.449218-104.800781-84.4375-104.800781-154.570312 0-46.613281 19.171875-88.753906 50.070312-118.941406 45.347657 10.867187 53.1875 42.203125 23.40625 53.175781-29.351562 10.8125-31.292968 30.761719-1.347656 40.332031.449219.144532.886719.28125 1.347656.417969 21.179688 6.351563 13.019532 26.308594-2.726562 38.585937-7.542969 5.882813-16.84375 10-25.484375 10-26.644531 0-4.703125 54.074219 27.425781 54.074219 32.132813 0 32.132813 76.925781 32.132813 76.925781zm0 0" fill="#3fb777"/><path d="m194.511719 410.570312h-.023438c-61.40625-24.449218-104.800781-84.4375-104.800781-154.570312 0-46.613281 19.171875-88.753906 50.070312-118.941406 45.347657 10.867187 53.1875 42.203125 23.40625 53.175781-29.351562 10.8125-31.292968 30.761719-1.347656 40.332031-1.273437 8.296875-1.933594 16.78125-1.933594 25.433594 0 4.566406.1875 9.089844.554688 13.570312-7.542969 5.882813-16.84375 10-25.484375 10-26.644531 0-4.703125 54.074219 27.425781 54.074219 32.132813 0 32.132813 76.925781 32.132813 76.925781zm0 0" fill="#2da365"/><path d="m469.226562 241.269531c-3.53125-51.449219-25.585937-99.890625-62.09375-136.402343-80.425781-80.425782-209.523437-83.222657-293.34375-8.410157v-36.070312h-10.449218v53.402343h53.398437v-10.449218h-34.964843c37.125-32.730469 84.296874-50.625 134.226562-50.625 54.300781 0 105.347656 21.148437 143.742188 59.542968 34.726562 34.722657 55.699218 80.792969 59.0625 129.726563 3.328124 48.460937-10.730469 96.488281-39.582032 135.234375l8.382813 6.242188c30.339843-40.746094 45.121093-91.246094 41.621093-142.191407zm0 0" fill="#dde8ed"/><path d="m355.261719 408.660156h34.964843c-37.125 32.730469-84.296874 50.625-134.226562 50.625-54.300781 0-105.347656-21.148437-143.742188-59.542968-34.207031-34.203126-55.128906-79.5625-58.914062-127.714844-3.742188-47.632813 9.382812-95.160156 36.953125-133.839844l-8.507813-6.066406c-28.996093 40.671875-42.796874 90.648437-38.863281 140.722656 3.980469 50.632812 25.976563 98.324219 61.941407 134.289062 41.667968 41.664063 96.398437 62.5 151.132812 62.5 50.910156 0 101.816406-18.039062 142.214844-54.089843v36.070312h10.449218v-53.398437h-53.398437v10.445312zm0 0" fill="#dde8ed"/></svg>